<mxfile host="app.diagrams.net" modified="2024-02-06T13:25:02.553Z" agent="Mozilla/5.0 (X11; Linux x86_64; rv:122.0) Gecko/20100101 Firefox/122.0" etag="GdBsIOArXp1YxYdFmUjL" version="23.1.1" type="github" pages="2">
  <diagram name="Page-1" id="tpIimq8p-vPiOyRLkm11">
    <mxGraphModel dx="1852" dy="1953" grid="1" gridSize="10" guides="1" tooltips="1" connect="1" arrows="1" fold="1" page="1" pageScale="1" pageWidth="850" pageHeight="1100" math="0" shadow="0">
      <root>
        <mxCell id="0" />
        <mxCell id="1" parent="0" />
        <mxCell id="wVadPvTFdwAXPovWYY2v-28" value="Behringer X32" style="swimlane;startSize=20;horizontal=1;containerType=tree;newEdgeStyle={&quot;edgeStyle&quot;:&quot;elbowEdgeStyle&quot;,&quot;startArrow&quot;:&quot;none&quot;,&quot;endArrow&quot;:&quot;none&quot;};" parent="1" vertex="1">
          <mxGeometry x="20" y="10" width="670" height="680" as="geometry" />
        </mxCell>
        <mxCell id="wVadPvTFdwAXPovWYY2v-45" style="edgeStyle=orthogonalEdgeStyle;rounded=0;orthogonalLoop=1;jettySize=auto;html=1;exitX=1.004;exitY=0.126;exitDx=0;exitDy=0;entryX=0;entryY=0.5;entryDx=0;entryDy=0;exitPerimeter=0;endArrow=none;endFill=0;" parent="wVadPvTFdwAXPovWYY2v-28" source="wVadPvTFdwAXPovWYY2v-36" target="wVadPvTFdwAXPovWYY2v-44" edge="1">
          <mxGeometry relative="1" as="geometry">
            <Array as="points">
              <mxPoint x="200" y="70" />
            </Array>
          </mxGeometry>
        </mxCell>
        <mxCell id="wVadPvTFdwAXPovWYY2v-57" style="edgeStyle=orthogonalEdgeStyle;rounded=0;orthogonalLoop=1;jettySize=auto;html=1;entryX=0;entryY=0.5;entryDx=0;entryDy=0;endArrow=none;endFill=0;" parent="wVadPvTFdwAXPovWYY2v-28" source="wVadPvTFdwAXPovWYY2v-36" target="wVadPvTFdwAXPovWYY2v-56" edge="1">
          <mxGeometry relative="1" as="geometry">
            <mxPoint x="130" y="150" as="sourcePoint" />
          </mxGeometry>
        </mxCell>
        <mxCell id="wVadPvTFdwAXPovWYY2v-64" style="edgeStyle=orthogonalEdgeStyle;rounded=0;orthogonalLoop=1;jettySize=auto;html=1;exitX=1.003;exitY=0.546;exitDx=0;exitDy=0;entryX=0;entryY=0.5;entryDx=0;entryDy=0;endArrow=halfCircle;endFill=0;exitPerimeter=0;" parent="wVadPvTFdwAXPovWYY2v-28" source="wVadPvTFdwAXPovWYY2v-36" target="wVadPvTFdwAXPovWYY2v-62" edge="1">
          <mxGeometry relative="1" as="geometry" />
        </mxCell>
        <mxCell id="wVadPvTFdwAXPovWYY2v-65" style="edgeStyle=orthogonalEdgeStyle;rounded=0;orthogonalLoop=1;jettySize=auto;html=1;exitX=1;exitY=0.75;exitDx=0;exitDy=0;entryX=0;entryY=0.5;entryDx=0;entryDy=0;endArrow=halfCircle;endFill=0;" parent="wVadPvTFdwAXPovWYY2v-28" source="wVadPvTFdwAXPovWYY2v-36" target="wVadPvTFdwAXPovWYY2v-63" edge="1">
          <mxGeometry relative="1" as="geometry">
            <Array as="points">
              <mxPoint x="160" y="120" />
              <mxPoint x="160" y="430" />
            </Array>
          </mxGeometry>
        </mxCell>
        <mxCell id="wVadPvTFdwAXPovWYY2v-69" style="edgeStyle=orthogonalEdgeStyle;rounded=0;orthogonalLoop=1;jettySize=auto;html=1;exitX=1;exitY=0.25;exitDx=0;exitDy=0;entryX=0;entryY=0.75;entryDx=0;entryDy=0;endArrow=halfCircle;endFill=0;" parent="wVadPvTFdwAXPovWYY2v-28" source="wVadPvTFdwAXPovWYY2v-36" target="wVadPvTFdwAXPovWYY2v-47" edge="1">
          <mxGeometry relative="1" as="geometry">
            <Array as="points">
              <mxPoint x="190" y="80" />
              <mxPoint x="190" y="175" />
            </Array>
          </mxGeometry>
        </mxCell>
        <mxCell id="wVadPvTFdwAXPovWYY2v-109" style="edgeStyle=orthogonalEdgeStyle;rounded=0;orthogonalLoop=1;jettySize=auto;html=1;exitX=0.883;exitY=1.01;exitDx=0;exitDy=0;entryX=0;entryY=0.5;entryDx=0;entryDy=0;endArrow=none;endFill=0;exitPerimeter=0;" parent="wVadPvTFdwAXPovWYY2v-28" source="wVadPvTFdwAXPovWYY2v-36" target="wVadPvTFdwAXPovWYY2v-108" edge="1">
          <mxGeometry relative="1" as="geometry" />
        </mxCell>
        <mxCell id="wVadPvTFdwAXPovWYY2v-127" style="edgeStyle=orthogonalEdgeStyle;rounded=0;orthogonalLoop=1;jettySize=auto;html=1;exitX=0.75;exitY=1;exitDx=0;exitDy=0;entryX=0;entryY=0.5;entryDx=0;entryDy=0;endArrow=none;endFill=0;" parent="wVadPvTFdwAXPovWYY2v-28" source="wVadPvTFdwAXPovWYY2v-36" target="wVadPvTFdwAXPovWYY2v-120" edge="1">
          <mxGeometry relative="1" as="geometry" />
        </mxCell>
        <mxCell id="wVadPvTFdwAXPovWYY2v-128" style="edgeStyle=orthogonalEdgeStyle;rounded=0;orthogonalLoop=1;jettySize=auto;html=1;exitX=0.563;exitY=1;exitDx=0;exitDy=0;entryX=0;entryY=0.5;entryDx=0;entryDy=0;exitPerimeter=0;endArrow=none;endFill=0;" parent="wVadPvTFdwAXPovWYY2v-28" source="wVadPvTFdwAXPovWYY2v-36" target="wVadPvTFdwAXPovWYY2v-122" edge="1">
          <mxGeometry relative="1" as="geometry" />
        </mxCell>
        <mxCell id="wVadPvTFdwAXPovWYY2v-129" style="edgeStyle=orthogonalEdgeStyle;rounded=0;orthogonalLoop=1;jettySize=auto;html=1;exitX=0.657;exitY=1.01;exitDx=0;exitDy=0;entryX=0;entryY=0.5;entryDx=0;entryDy=0;endArrow=none;endFill=0;exitPerimeter=0;" parent="wVadPvTFdwAXPovWYY2v-28" source="wVadPvTFdwAXPovWYY2v-36" target="wVadPvTFdwAXPovWYY2v-121" edge="1">
          <mxGeometry relative="1" as="geometry">
            <mxPoint x="120.00000000000023" y="660" as="targetPoint" />
          </mxGeometry>
        </mxCell>
        <mxCell id="wVadPvTFdwAXPovWYY2v-36" value="Channels" style="shape=label;whiteSpace=wrap;html=1;fixedSize=1;shadow=0;rounded=0;" parent="wVadPvTFdwAXPovWYY2v-28" vertex="1">
          <mxGeometry x="30" y="60" width="120" height="80" as="geometry" />
        </mxCell>
        <mxCell id="wVadPvTFdwAXPovWYY2v-44" value="Stereo Bus" style="rounded=0;whiteSpace=wrap;html=1;" parent="wVadPvTFdwAXPovWYY2v-28" vertex="1">
          <mxGeometry x="350" y="240" width="120" height="60" as="geometry" />
        </mxCell>
        <mxCell id="wVadPvTFdwAXPovWYY2v-46" style="edgeStyle=orthogonalEdgeStyle;rounded=0;orthogonalLoop=1;jettySize=auto;html=1;entryX=0;entryY=0.288;entryDx=0;entryDy=0;endArrow=halfCircle;endFill=0;entryPerimeter=0;shape=link;exitX=0.5;exitY=1;exitDx=0;exitDy=0;" parent="wVadPvTFdwAXPovWYY2v-28" source="wVadPvTFdwAXPovWYY2v-44" target="wVadPvTFdwAXPovWYY2v-47" edge="1">
          <mxGeometry relative="1" as="geometry">
            <mxPoint x="250" y="120" as="sourcePoint" />
            <mxPoint x="355.0000000000001" y="170" as="targetPoint" />
          </mxGeometry>
        </mxCell>
        <mxCell id="wVadPvTFdwAXPovWYY2v-56" value="Mono Bus" style="rounded=0;whiteSpace=wrap;html=1;" parent="wVadPvTFdwAXPovWYY2v-28" vertex="1">
          <mxGeometry x="350" y="40" width="120" height="60" as="geometry" />
        </mxCell>
        <mxCell id="wVadPvTFdwAXPovWYY2v-62" value="MixBus 3/4" style="rounded=0;whiteSpace=wrap;html=1;" parent="wVadPvTFdwAXPovWYY2v-28" vertex="1">
          <mxGeometry x="200" y="310" width="120" height="60" as="geometry" />
        </mxCell>
        <mxCell id="wVadPvTFdwAXPovWYY2v-63" value="MixBus 5/6" style="rounded=0;whiteSpace=wrap;html=1;" parent="wVadPvTFdwAXPovWYY2v-28" vertex="1">
          <mxGeometry x="200" y="400" width="120" height="60" as="geometry" />
        </mxCell>
        <mxCell id="wVadPvTFdwAXPovWYY2v-47" value="&lt;div&gt;Matrix 1/2&lt;/div&gt;" style="rounded=0;whiteSpace=wrap;html=1;" parent="wVadPvTFdwAXPovWYY2v-28" vertex="1">
          <mxGeometry x="360" y="130" width="120" height="60" as="geometry" />
        </mxCell>
        <mxCell id="wVadPvTFdwAXPovWYY2v-139" style="edgeStyle=orthogonalEdgeStyle;rounded=0;orthogonalLoop=1;jettySize=auto;html=1;exitX=1;exitY=0.5;exitDx=0;exitDy=0;entryX=0;entryY=0.5;entryDx=0;entryDy=0;" parent="wVadPvTFdwAXPovWYY2v-28" source="wVadPvTFdwAXPovWYY2v-108" target="wVadPvTFdwAXPovWYY2v-132" edge="1">
          <mxGeometry relative="1" as="geometry" />
        </mxCell>
        <mxCell id="wVadPvTFdwAXPovWYY2v-108" value="MixBus 13" style="rounded=0;whiteSpace=wrap;html=1;" parent="wVadPvTFdwAXPovWYY2v-28" vertex="1">
          <mxGeometry x="200" y="500" width="120" height="40" as="geometry" />
        </mxCell>
        <mxCell id="wVadPvTFdwAXPovWYY2v-138" style="edgeStyle=orthogonalEdgeStyle;rounded=0;orthogonalLoop=1;jettySize=auto;html=1;exitX=1;exitY=0.5;exitDx=0;exitDy=0;entryX=0;entryY=0.5;entryDx=0;entryDy=0;" parent="wVadPvTFdwAXPovWYY2v-28" source="wVadPvTFdwAXPovWYY2v-120" target="wVadPvTFdwAXPovWYY2v-133" edge="1">
          <mxGeometry relative="1" as="geometry" />
        </mxCell>
        <mxCell id="wVadPvTFdwAXPovWYY2v-120" value="MixBus 14" style="rounded=0;whiteSpace=wrap;html=1;" parent="wVadPvTFdwAXPovWYY2v-28" vertex="1">
          <mxGeometry x="200" y="540" width="120" height="40" as="geometry" />
        </mxCell>
        <mxCell id="wVadPvTFdwAXPovWYY2v-137" style="edgeStyle=orthogonalEdgeStyle;rounded=0;orthogonalLoop=1;jettySize=auto;html=1;exitX=1;exitY=0.5;exitDx=0;exitDy=0;entryX=0;entryY=0.5;entryDx=0;entryDy=0;" parent="wVadPvTFdwAXPovWYY2v-28" source="wVadPvTFdwAXPovWYY2v-121" target="wVadPvTFdwAXPovWYY2v-134" edge="1">
          <mxGeometry relative="1" as="geometry" />
        </mxCell>
        <mxCell id="wVadPvTFdwAXPovWYY2v-121" value="&lt;div&gt;MixBus 15&lt;/div&gt;" style="rounded=0;whiteSpace=wrap;html=1;" parent="wVadPvTFdwAXPovWYY2v-28" vertex="1">
          <mxGeometry x="200" y="580" width="120" height="40" as="geometry" />
        </mxCell>
        <mxCell id="wVadPvTFdwAXPovWYY2v-136" style="edgeStyle=orthogonalEdgeStyle;rounded=0;orthogonalLoop=1;jettySize=auto;html=1;exitX=1;exitY=0.5;exitDx=0;exitDy=0;entryX=0;entryY=0.5;entryDx=0;entryDy=0;" parent="wVadPvTFdwAXPovWYY2v-28" source="wVadPvTFdwAXPovWYY2v-122" target="wVadPvTFdwAXPovWYY2v-135" edge="1">
          <mxGeometry relative="1" as="geometry" />
        </mxCell>
        <mxCell id="wVadPvTFdwAXPovWYY2v-122" value="MixBus 16" style="rounded=0;whiteSpace=wrap;html=1;" parent="wVadPvTFdwAXPovWYY2v-28" vertex="1">
          <mxGeometry x="200" y="620" width="120" height="40" as="geometry" />
        </mxCell>
        <mxCell id="wVadPvTFdwAXPovWYY2v-132" value="FX Send 1/2" style="rounded=0;whiteSpace=wrap;html=1;" parent="wVadPvTFdwAXPovWYY2v-28" vertex="1">
          <mxGeometry x="360" y="500" width="120" height="40" as="geometry" />
        </mxCell>
        <mxCell id="wVadPvTFdwAXPovWYY2v-133" value="FX Send 3/4" style="rounded=0;whiteSpace=wrap;html=1;" parent="wVadPvTFdwAXPovWYY2v-28" vertex="1">
          <mxGeometry x="360" y="540" width="120" height="40" as="geometry" />
        </mxCell>
        <mxCell id="wVadPvTFdwAXPovWYY2v-134" value="FX Send 5/6" style="rounded=0;whiteSpace=wrap;html=1;" parent="wVadPvTFdwAXPovWYY2v-28" vertex="1">
          <mxGeometry x="360" y="580" width="120" height="40" as="geometry" />
        </mxCell>
        <mxCell id="wVadPvTFdwAXPovWYY2v-135" value="FX Send 7/8" style="rounded=0;whiteSpace=wrap;html=1;" parent="wVadPvTFdwAXPovWYY2v-28" vertex="1">
          <mxGeometry x="360" y="620" width="120" height="40" as="geometry" />
        </mxCell>
        <mxCell id="wVadPvTFdwAXPovWYY2v-102" value="X32 Physical Outs" style="swimlane;startSize=20;horizontal=1;containerType=tree;newEdgeStyle={&quot;edgeStyle&quot;:&quot;elbowEdgeStyle&quot;,&quot;startArrow&quot;:&quot;none&quot;,&quot;endArrow&quot;:&quot;none&quot;};" parent="wVadPvTFdwAXPovWYY2v-28" vertex="1">
          <mxGeometry x="510" width="160" height="480" as="geometry" />
        </mxCell>
        <mxCell id="wVadPvTFdwAXPovWYY2v-72" value="XLR Out 9/10" style="rounded=0;whiteSpace=wrap;html=1;" parent="wVadPvTFdwAXPovWYY2v-102" vertex="1">
          <mxGeometry x="20" y="310" width="120" height="60" as="geometry" />
        </mxCell>
        <mxCell id="wVadPvTFdwAXPovWYY2v-74" value="Aux Out 5/6" style="rounded=0;whiteSpace=wrap;html=1;" parent="wVadPvTFdwAXPovWYY2v-102" vertex="1">
          <mxGeometry x="20" y="400" width="120" height="60" as="geometry" />
        </mxCell>
        <mxCell id="wVadPvTFdwAXPovWYY2v-53" value="XLR Out 15/16" style="rounded=0;whiteSpace=wrap;html=1;" parent="wVadPvTFdwAXPovWYY2v-102" vertex="1">
          <mxGeometry x="20" y="130" width="120" height="60" as="geometry" />
        </mxCell>
        <mxCell id="wVadPvTFdwAXPovWYY2v-149" value="Main Speakers" style="rounded=0;whiteSpace=wrap;html=1;" parent="wVadPvTFdwAXPovWYY2v-102" vertex="1">
          <mxGeometry x="180" y="130" width="120" height="60" as="geometry" />
        </mxCell>
        <mxCell id="wVadPvTFdwAXPovWYY2v-148" style="edgeStyle=orthogonalEdgeStyle;rounded=0;orthogonalLoop=1;jettySize=auto;html=1;exitX=1;exitY=0.5;exitDx=0;exitDy=0;entryX=0;entryY=0.5;entryDx=0;entryDy=0;endArrow=halfCircle;endFill=0;" parent="wVadPvTFdwAXPovWYY2v-102" source="wVadPvTFdwAXPovWYY2v-53" target="wVadPvTFdwAXPovWYY2v-149" edge="1">
          <mxGeometry relative="1" as="geometry">
            <mxPoint x="350" y="80" as="sourcePoint" />
          </mxGeometry>
        </mxCell>
        <mxCell id="wVadPvTFdwAXPovWYY2v-50" value="XLR Out 13/14" style="rounded=0;whiteSpace=wrap;html=1;" parent="wVadPvTFdwAXPovWYY2v-102" vertex="1">
          <mxGeometry x="20" y="220" width="120" height="60" as="geometry" />
        </mxCell>
        <mxCell id="wVadPvTFdwAXPovWYY2v-147" value="Rear Speakers" style="rounded=0;whiteSpace=wrap;html=1;" parent="wVadPvTFdwAXPovWYY2v-102" vertex="1">
          <mxGeometry x="180" y="220" width="120" height="60" as="geometry" />
        </mxCell>
        <mxCell id="wVadPvTFdwAXPovWYY2v-146" style="edgeStyle=orthogonalEdgeStyle;rounded=0;orthogonalLoop=1;jettySize=auto;html=1;exitX=1;exitY=0.5;exitDx=0;exitDy=0;entryX=0;entryY=0.5;entryDx=0;entryDy=0;shape=link;" parent="wVadPvTFdwAXPovWYY2v-102" source="wVadPvTFdwAXPovWYY2v-50" target="wVadPvTFdwAXPovWYY2v-147" edge="1">
          <mxGeometry relative="1" as="geometry">
            <mxPoint x="510" y="170" as="sourcePoint" />
          </mxGeometry>
        </mxCell>
        <mxCell id="wVadPvTFdwAXPovWYY2v-49" style="edgeStyle=orthogonalEdgeStyle;rounded=0;orthogonalLoop=1;jettySize=auto;html=1;exitX=1;exitY=0.5;exitDx=0;exitDy=0;entryX=0;entryY=0.5;entryDx=0;entryDy=0;shape=link;" parent="wVadPvTFdwAXPovWYY2v-102" source="wVadPvTFdwAXPovWYY2v-102" target="wVadPvTFdwAXPovWYY2v-50" edge="1">
          <mxGeometry relative="1" as="geometry">
            <mxPoint x="-180" y="150" as="sourcePoint" />
          </mxGeometry>
        </mxCell>
        <mxCell id="wVadPvTFdwAXPovWYY2v-60" value="XLR Out 12" style="rounded=0;whiteSpace=wrap;html=1;" parent="wVadPvTFdwAXPovWYY2v-102" vertex="1">
          <mxGeometry x="20" y="50" width="120" height="60" as="geometry" />
        </mxCell>
        <mxCell id="wVadPvTFdwAXPovWYY2v-59" style="edgeStyle=orthogonalEdgeStyle;rounded=0;orthogonalLoop=1;jettySize=auto;html=1;exitX=1;exitY=0.5;exitDx=0;exitDy=0;entryX=0;entryY=0.5;entryDx=0;entryDy=0;endArrow=none;endFill=0;" parent="wVadPvTFdwAXPovWYY2v-102" source="wVadPvTFdwAXPovWYY2v-102" target="wVadPvTFdwAXPovWYY2v-60" edge="1">
          <mxGeometry relative="1" as="geometry">
            <mxPoint x="-389" y="167" as="sourcePoint" />
          </mxGeometry>
        </mxCell>
        <mxCell id="wVadPvTFdwAXPovWYY2v-71" style="edgeStyle=orthogonalEdgeStyle;rounded=0;orthogonalLoop=1;jettySize=auto;html=1;exitX=1;exitY=0.5;exitDx=0;exitDy=0;entryX=0;entryY=0.5;entryDx=0;entryDy=0;endArrow=none;endFill=0;shape=link;" parent="wVadPvTFdwAXPovWYY2v-28" source="wVadPvTFdwAXPovWYY2v-62" target="wVadPvTFdwAXPovWYY2v-72" edge="1">
          <mxGeometry relative="1" as="geometry">
            <mxPoint x="125" y="190" as="sourcePoint" />
          </mxGeometry>
        </mxCell>
        <mxCell id="wVadPvTFdwAXPovWYY2v-73" style="edgeStyle=orthogonalEdgeStyle;rounded=0;orthogonalLoop=1;jettySize=auto;html=1;exitX=1;exitY=0.5;exitDx=0;exitDy=0;entryX=0;entryY=0.5;entryDx=0;entryDy=0;endArrow=none;endFill=0;shape=link;" parent="wVadPvTFdwAXPovWYY2v-28" source="wVadPvTFdwAXPovWYY2v-63" target="wVadPvTFdwAXPovWYY2v-74" edge="1">
          <mxGeometry relative="1" as="geometry">
            <mxPoint x="95" y="190" as="sourcePoint" />
          </mxGeometry>
        </mxCell>
        <mxCell id="wVadPvTFdwAXPovWYY2v-116" value="" style="endArrow=none;dashed=1;html=1;rounded=0;exitX=0;exitY=1;exitDx=0;exitDy=0;" parent="1" source="wVadPvTFdwAXPovWYY2v-102" edge="1">
          <mxGeometry width="50" height="50" relative="1" as="geometry">
            <mxPoint x="160" y="410" as="sourcePoint" />
            <mxPoint x="20" y="490" as="targetPoint" />
          </mxGeometry>
        </mxCell>
        <mxCell id="wVadPvTFdwAXPovWYY2v-143" value="Tech Box Speakers" style="rounded=0;whiteSpace=wrap;html=1;" parent="1" vertex="1">
          <mxGeometry x="710" y="320" width="120" height="60" as="geometry" />
        </mxCell>
        <mxCell id="wVadPvTFdwAXPovWYY2v-142" style="edgeStyle=orthogonalEdgeStyle;rounded=0;orthogonalLoop=1;jettySize=auto;html=1;exitX=1;exitY=0.5;exitDx=0;exitDy=0;entryX=0;entryY=0.5;entryDx=0;entryDy=0;endArrow=none;endFill=0;shape=link;" parent="1" source="wVadPvTFdwAXPovWYY2v-72" target="wVadPvTFdwAXPovWYY2v-143" edge="1">
          <mxGeometry relative="1" as="geometry">
            <mxPoint x="880" y="360" as="sourcePoint" />
          </mxGeometry>
        </mxCell>
        <mxCell id="wVadPvTFdwAXPovWYY2v-151" value="Building Speakers" style="rounded=0;whiteSpace=wrap;html=1;" parent="1" vertex="1">
          <mxGeometry x="710" y="410" width="120" height="60" as="geometry" />
        </mxCell>
        <mxCell id="wVadPvTFdwAXPovWYY2v-150" style="edgeStyle=orthogonalEdgeStyle;rounded=0;orthogonalLoop=1;jettySize=auto;html=1;exitX=1;exitY=0.5;exitDx=0;exitDy=0;entryX=0;entryY=0.5;entryDx=0;entryDy=0;endArrow=none;endFill=0;shape=link;" parent="1" source="wVadPvTFdwAXPovWYY2v-74" target="wVadPvTFdwAXPovWYY2v-151" edge="1">
          <mxGeometry relative="1" as="geometry">
            <mxPoint x="880" y="450" as="sourcePoint" />
          </mxGeometry>
        </mxCell>
        <mxCell id="wVadPvTFdwAXPovWYY2v-168" style="edgeStyle=orthogonalEdgeStyle;rounded=0;orthogonalLoop=1;jettySize=auto;html=1;exitX=0.5;exitY=1;exitDx=0;exitDy=0;entryX=0;entryY=0.5;entryDx=0;entryDy=0;" parent="1" source="wVadPvTFdwAXPovWYY2v-153" target="wVadPvTFdwAXPovWYY2v-36" edge="1">
          <mxGeometry relative="1" as="geometry">
            <Array as="points">
              <mxPoint x="610" y="740" />
              <mxPoint x="30" y="740" />
              <mxPoint x="30" y="110" />
            </Array>
          </mxGeometry>
        </mxCell>
        <mxCell id="wVadPvTFdwAXPovWYY2v-153" value="Feed back into Channels" style="rounded=0;whiteSpace=wrap;html=1;" parent="1" vertex="1">
          <mxGeometry x="550" y="560" width="120" height="60" as="geometry" />
        </mxCell>
        <mxCell id="wVadPvTFdwAXPovWYY2v-164" style="edgeStyle=orthogonalEdgeStyle;rounded=0;orthogonalLoop=1;jettySize=auto;html=1;exitX=1;exitY=0.5;exitDx=0;exitDy=0;entryX=0;entryY=0.5;entryDx=0;entryDy=0;" parent="1" source="wVadPvTFdwAXPovWYY2v-132" target="wVadPvTFdwAXPovWYY2v-153" edge="1">
          <mxGeometry relative="1" as="geometry" />
        </mxCell>
        <mxCell id="wVadPvTFdwAXPovWYY2v-167" style="edgeStyle=orthogonalEdgeStyle;rounded=0;orthogonalLoop=1;jettySize=auto;html=1;exitX=1;exitY=0.5;exitDx=0;exitDy=0;entryX=0;entryY=0.5;entryDx=0;entryDy=0;" parent="1" source="wVadPvTFdwAXPovWYY2v-135" target="wVadPvTFdwAXPovWYY2v-153" edge="1">
          <mxGeometry relative="1" as="geometry" />
        </mxCell>
        <mxCell id="wVadPvTFdwAXPovWYY2v-166" style="edgeStyle=orthogonalEdgeStyle;rounded=0;orthogonalLoop=1;jettySize=auto;html=1;exitX=1;exitY=0.5;exitDx=0;exitDy=0;entryX=0;entryY=0.5;entryDx=0;entryDy=0;" parent="1" source="wVadPvTFdwAXPovWYY2v-134" target="wVadPvTFdwAXPovWYY2v-153" edge="1">
          <mxGeometry relative="1" as="geometry">
            <mxPoint x="550" y="590" as="targetPoint" />
          </mxGeometry>
        </mxCell>
        <mxCell id="wVadPvTFdwAXPovWYY2v-165" style="edgeStyle=orthogonalEdgeStyle;rounded=0;orthogonalLoop=1;jettySize=auto;html=1;exitX=1;exitY=0.5;exitDx=0;exitDy=0;entryX=0;entryY=0.5;entryDx=0;entryDy=0;" parent="1" source="wVadPvTFdwAXPovWYY2v-133" target="wVadPvTFdwAXPovWYY2v-153" edge="1">
          <mxGeometry relative="1" as="geometry">
            <mxPoint x="550" y="590" as="targetPoint" />
          </mxGeometry>
        </mxCell>
        <mxCell id="wVadPvTFdwAXPovWYY2v-169" value="Behringer X32" style="swimlane;startSize=20;horizontal=1;containerType=tree;newEdgeStyle={&quot;edgeStyle&quot;:&quot;elbowEdgeStyle&quot;,&quot;startArrow&quot;:&quot;none&quot;,&quot;endArrow&quot;:&quot;none&quot;};" parent="1" vertex="1">
          <mxGeometry x="20" y="790" width="510" height="520" as="geometry" />
        </mxCell>
        <mxCell id="wVadPvTFdwAXPovWYY2v-170" style="edgeStyle=orthogonalEdgeStyle;rounded=0;orthogonalLoop=1;jettySize=auto;html=1;exitX=1.004;exitY=0.126;exitDx=0;exitDy=0;entryX=0;entryY=0.5;entryDx=0;entryDy=0;exitPerimeter=0;endArrow=none;endFill=0;" parent="wVadPvTFdwAXPovWYY2v-169" source="wVadPvTFdwAXPovWYY2v-179" target="wVadPvTFdwAXPovWYY2v-180" edge="1">
          <mxGeometry relative="1" as="geometry">
            <Array as="points">
              <mxPoint x="200" y="70" />
            </Array>
          </mxGeometry>
        </mxCell>
        <mxCell id="wVadPvTFdwAXPovWYY2v-172" style="edgeStyle=orthogonalEdgeStyle;rounded=0;orthogonalLoop=1;jettySize=auto;html=1;exitX=1.003;exitY=0.546;exitDx=0;exitDy=0;entryX=0;entryY=0.5;entryDx=0;entryDy=0;endArrow=halfCircle;endFill=0;exitPerimeter=0;" parent="wVadPvTFdwAXPovWYY2v-169" source="wVadPvTFdwAXPovWYY2v-179" target="wVadPvTFdwAXPovWYY2v-183" edge="1">
          <mxGeometry relative="1" as="geometry" />
        </mxCell>
        <mxCell id="wVadPvTFdwAXPovWYY2v-173" style="edgeStyle=orthogonalEdgeStyle;rounded=0;orthogonalLoop=1;jettySize=auto;html=1;exitX=1;exitY=0.75;exitDx=0;exitDy=0;entryX=0;entryY=0.5;entryDx=0;entryDy=0;endArrow=halfCircle;endFill=0;" parent="wVadPvTFdwAXPovWYY2v-169" source="wVadPvTFdwAXPovWYY2v-179" target="wVadPvTFdwAXPovWYY2v-184" edge="1">
          <mxGeometry relative="1" as="geometry">
            <Array as="points">
              <mxPoint x="160" y="120" />
              <mxPoint x="160" y="250" />
            </Array>
          </mxGeometry>
        </mxCell>
        <mxCell id="wVadPvTFdwAXPovWYY2v-175" style="edgeStyle=orthogonalEdgeStyle;rounded=0;orthogonalLoop=1;jettySize=auto;html=1;exitX=0.883;exitY=1.01;exitDx=0;exitDy=0;entryX=0;entryY=0.5;entryDx=0;entryDy=0;endArrow=none;endFill=0;exitPerimeter=0;" parent="wVadPvTFdwAXPovWYY2v-169" source="wVadPvTFdwAXPovWYY2v-179" target="wVadPvTFdwAXPovWYY2v-187" edge="1">
          <mxGeometry relative="1" as="geometry" />
        </mxCell>
        <mxCell id="wVadPvTFdwAXPovWYY2v-176" style="edgeStyle=orthogonalEdgeStyle;rounded=0;orthogonalLoop=1;jettySize=auto;html=1;exitX=0.75;exitY=1;exitDx=0;exitDy=0;entryX=0;entryY=0.5;entryDx=0;entryDy=0;endArrow=none;endFill=0;" parent="wVadPvTFdwAXPovWYY2v-169" source="wVadPvTFdwAXPovWYY2v-179" target="wVadPvTFdwAXPovWYY2v-189" edge="1">
          <mxGeometry relative="1" as="geometry" />
        </mxCell>
        <mxCell id="wVadPvTFdwAXPovWYY2v-177" style="edgeStyle=orthogonalEdgeStyle;rounded=0;orthogonalLoop=1;jettySize=auto;html=1;exitX=0.563;exitY=1;exitDx=0;exitDy=0;entryX=0;entryY=0.5;entryDx=0;entryDy=0;exitPerimeter=0;endArrow=none;endFill=0;" parent="wVadPvTFdwAXPovWYY2v-169" source="wVadPvTFdwAXPovWYY2v-179" target="wVadPvTFdwAXPovWYY2v-193" edge="1">
          <mxGeometry relative="1" as="geometry" />
        </mxCell>
        <mxCell id="wVadPvTFdwAXPovWYY2v-178" style="edgeStyle=orthogonalEdgeStyle;rounded=0;orthogonalLoop=1;jettySize=auto;html=1;exitX=0.657;exitY=1.01;exitDx=0;exitDy=0;entryX=0;entryY=0.5;entryDx=0;entryDy=0;endArrow=none;endFill=0;exitPerimeter=0;" parent="wVadPvTFdwAXPovWYY2v-169" source="wVadPvTFdwAXPovWYY2v-179" target="wVadPvTFdwAXPovWYY2v-191" edge="1">
          <mxGeometry relative="1" as="geometry">
            <mxPoint x="120.00000000000023" y="660" as="targetPoint" />
          </mxGeometry>
        </mxCell>
        <mxCell id="wVadPvTFdwAXPovWYY2v-179" value="Channels" style="shape=label;whiteSpace=wrap;html=1;fixedSize=1;shadow=0;rounded=0;" parent="wVadPvTFdwAXPovWYY2v-169" vertex="1">
          <mxGeometry x="30" y="60" width="120" height="80" as="geometry" />
        </mxCell>
        <mxCell id="wVadPvTFdwAXPovWYY2v-180" value="Stereo Bus" style="rounded=0;whiteSpace=wrap;html=1;" parent="wVadPvTFdwAXPovWYY2v-169" vertex="1">
          <mxGeometry x="200" y="40" width="120" height="60" as="geometry" />
        </mxCell>
        <mxCell id="wVadPvTFdwAXPovWYY2v-198" value="X32 Physical Outs" style="swimlane;startSize=20;horizontal=1;containerType=tree;newEdgeStyle={&quot;edgeStyle&quot;:&quot;elbowEdgeStyle&quot;,&quot;startArrow&quot;:&quot;none&quot;,&quot;endArrow&quot;:&quot;none&quot;};" parent="wVadPvTFdwAXPovWYY2v-169" vertex="1">
          <mxGeometry x="510" width="160" height="310" as="geometry" />
        </mxCell>
        <mxCell id="wVadPvTFdwAXPovWYY2v-199" value="XLR Out 15/16" style="rounded=0;whiteSpace=wrap;html=1;" parent="wVadPvTFdwAXPovWYY2v-198" vertex="1">
          <mxGeometry x="20" y="40" width="120" height="60" as="geometry" />
        </mxCell>
        <mxCell id="wVadPvTFdwAXPovWYY2v-204" style="edgeStyle=orthogonalEdgeStyle;rounded=0;orthogonalLoop=1;jettySize=auto;html=1;exitX=1;exitY=0.5;exitDx=0;exitDy=0;entryX=0;entryY=0.5;entryDx=0;entryDy=0;endArrow=halfCircle;endFill=0;" parent="wVadPvTFdwAXPovWYY2v-169" source="wVadPvTFdwAXPovWYY2v-180" target="wVadPvTFdwAXPovWYY2v-199" edge="1">
          <mxGeometry relative="1" as="geometry">
            <mxPoint x="130" y="150" as="sourcePoint" />
          </mxGeometry>
        </mxCell>
        <mxCell id="wVadPvTFdwAXPovWYY2v-183" value="MixBus 3/4" style="rounded=0;whiteSpace=wrap;html=1;" parent="wVadPvTFdwAXPovWYY2v-169" vertex="1">
          <mxGeometry x="200" y="130" width="120" height="60" as="geometry" />
        </mxCell>
        <mxCell id="wVadPvTFdwAXPovWYY2v-184" value="MixBus 5/6" style="rounded=0;whiteSpace=wrap;html=1;" parent="wVadPvTFdwAXPovWYY2v-169" vertex="1">
          <mxGeometry x="200" y="220" width="120" height="60" as="geometry" />
        </mxCell>
        <mxCell id="wVadPvTFdwAXPovWYY2v-186" style="edgeStyle=orthogonalEdgeStyle;rounded=0;orthogonalLoop=1;jettySize=auto;html=1;exitX=1;exitY=0.5;exitDx=0;exitDy=0;entryX=0;entryY=0.5;entryDx=0;entryDy=0;" parent="wVadPvTFdwAXPovWYY2v-169" source="wVadPvTFdwAXPovWYY2v-187" target="wVadPvTFdwAXPovWYY2v-194" edge="1">
          <mxGeometry relative="1" as="geometry" />
        </mxCell>
        <mxCell id="wVadPvTFdwAXPovWYY2v-187" value="MixBus 13" style="rounded=0;whiteSpace=wrap;html=1;" parent="wVadPvTFdwAXPovWYY2v-169" vertex="1">
          <mxGeometry x="200" y="340" width="120" height="40" as="geometry" />
        </mxCell>
        <mxCell id="wVadPvTFdwAXPovWYY2v-188" style="edgeStyle=orthogonalEdgeStyle;rounded=0;orthogonalLoop=1;jettySize=auto;html=1;exitX=1;exitY=0.5;exitDx=0;exitDy=0;entryX=0;entryY=0.5;entryDx=0;entryDy=0;" parent="wVadPvTFdwAXPovWYY2v-169" source="wVadPvTFdwAXPovWYY2v-189" target="wVadPvTFdwAXPovWYY2v-195" edge="1">
          <mxGeometry relative="1" as="geometry" />
        </mxCell>
        <mxCell id="wVadPvTFdwAXPovWYY2v-189" value="MixBus 14" style="rounded=0;whiteSpace=wrap;html=1;" parent="wVadPvTFdwAXPovWYY2v-169" vertex="1">
          <mxGeometry x="200" y="380" width="120" height="40" as="geometry" />
        </mxCell>
        <mxCell id="wVadPvTFdwAXPovWYY2v-190" style="edgeStyle=orthogonalEdgeStyle;rounded=0;orthogonalLoop=1;jettySize=auto;html=1;exitX=1;exitY=0.5;exitDx=0;exitDy=0;entryX=0;entryY=0.5;entryDx=0;entryDy=0;" parent="wVadPvTFdwAXPovWYY2v-169" source="wVadPvTFdwAXPovWYY2v-191" target="wVadPvTFdwAXPovWYY2v-196" edge="1">
          <mxGeometry relative="1" as="geometry" />
        </mxCell>
        <mxCell id="wVadPvTFdwAXPovWYY2v-191" value="&lt;div&gt;MixBus 15&lt;/div&gt;" style="rounded=0;whiteSpace=wrap;html=1;" parent="wVadPvTFdwAXPovWYY2v-169" vertex="1">
          <mxGeometry x="200" y="420" width="120" height="40" as="geometry" />
        </mxCell>
        <mxCell id="wVadPvTFdwAXPovWYY2v-192" style="edgeStyle=orthogonalEdgeStyle;rounded=0;orthogonalLoop=1;jettySize=auto;html=1;exitX=1;exitY=0.5;exitDx=0;exitDy=0;entryX=0;entryY=0.5;entryDx=0;entryDy=0;" parent="wVadPvTFdwAXPovWYY2v-169" source="wVadPvTFdwAXPovWYY2v-193" target="wVadPvTFdwAXPovWYY2v-197" edge="1">
          <mxGeometry relative="1" as="geometry" />
        </mxCell>
        <mxCell id="wVadPvTFdwAXPovWYY2v-193" value="MixBus 16" style="rounded=0;whiteSpace=wrap;html=1;" parent="wVadPvTFdwAXPovWYY2v-169" vertex="1">
          <mxGeometry x="200" y="460" width="120" height="40" as="geometry" />
        </mxCell>
        <mxCell id="wVadPvTFdwAXPovWYY2v-194" value="FX Send 1/2" style="rounded=0;whiteSpace=wrap;html=1;" parent="wVadPvTFdwAXPovWYY2v-169" vertex="1">
          <mxGeometry x="360" y="340" width="120" height="40" as="geometry" />
        </mxCell>
        <mxCell id="wVadPvTFdwAXPovWYY2v-195" value="FX Send 3/4" style="rounded=0;whiteSpace=wrap;html=1;" parent="wVadPvTFdwAXPovWYY2v-169" vertex="1">
          <mxGeometry x="360" y="380" width="120" height="40" as="geometry" />
        </mxCell>
        <mxCell id="wVadPvTFdwAXPovWYY2v-196" value="FX Send 5/6" style="rounded=0;whiteSpace=wrap;html=1;" parent="wVadPvTFdwAXPovWYY2v-169" vertex="1">
          <mxGeometry x="360" y="420" width="120" height="40" as="geometry" />
        </mxCell>
        <mxCell id="wVadPvTFdwAXPovWYY2v-197" value="FX Send 7/8" style="rounded=0;whiteSpace=wrap;html=1;" parent="wVadPvTFdwAXPovWYY2v-169" vertex="1">
          <mxGeometry x="360" y="460" width="120" height="40" as="geometry" />
        </mxCell>
        <mxCell id="wVadPvTFdwAXPovWYY2v-202" value="XLR Out 9/10" style="rounded=0;whiteSpace=wrap;html=1;" parent="wVadPvTFdwAXPovWYY2v-169" vertex="1">
          <mxGeometry x="530" y="130" width="120" height="60" as="geometry" />
        </mxCell>
        <mxCell id="wVadPvTFdwAXPovWYY2v-203" value="Aux Out 5/6" style="rounded=0;whiteSpace=wrap;html=1;" parent="wVadPvTFdwAXPovWYY2v-169" vertex="1">
          <mxGeometry x="530" y="220" width="120" height="60" as="geometry" />
        </mxCell>
        <mxCell id="wVadPvTFdwAXPovWYY2v-207" style="edgeStyle=orthogonalEdgeStyle;rounded=0;orthogonalLoop=1;jettySize=auto;html=1;exitX=1;exitY=0.5;exitDx=0;exitDy=0;entryX=0;entryY=0.5;entryDx=0;entryDy=0;endArrow=none;endFill=0;shape=link;" parent="wVadPvTFdwAXPovWYY2v-169" source="wVadPvTFdwAXPovWYY2v-183" target="wVadPvTFdwAXPovWYY2v-202" edge="1">
          <mxGeometry relative="1" as="geometry">
            <mxPoint x="125" y="10" as="sourcePoint" />
          </mxGeometry>
        </mxCell>
        <mxCell id="wVadPvTFdwAXPovWYY2v-208" style="edgeStyle=orthogonalEdgeStyle;rounded=0;orthogonalLoop=1;jettySize=auto;html=1;exitX=1;exitY=0.5;exitDx=0;exitDy=0;entryX=0;entryY=0.5;entryDx=0;entryDy=0;endArrow=none;endFill=0;shape=link;" parent="wVadPvTFdwAXPovWYY2v-169" source="wVadPvTFdwAXPovWYY2v-184" target="wVadPvTFdwAXPovWYY2v-203" edge="1">
          <mxGeometry relative="1" as="geometry">
            <mxPoint x="95" y="10" as="sourcePoint" />
          </mxGeometry>
        </mxCell>
        <mxCell id="wVadPvTFdwAXPovWYY2v-210" value="Tech Box Speakers" style="rounded=0;whiteSpace=wrap;html=1;" parent="wVadPvTFdwAXPovWYY2v-169" vertex="1">
          <mxGeometry x="690" y="130" width="120" height="60" as="geometry" />
        </mxCell>
        <mxCell id="wVadPvTFdwAXPovWYY2v-211" style="edgeStyle=orthogonalEdgeStyle;rounded=0;orthogonalLoop=1;jettySize=auto;html=1;exitX=1;exitY=0.5;exitDx=0;exitDy=0;entryX=0;entryY=0.5;entryDx=0;entryDy=0;endArrow=none;endFill=0;shape=link;" parent="wVadPvTFdwAXPovWYY2v-169" source="wVadPvTFdwAXPovWYY2v-202" target="wVadPvTFdwAXPovWYY2v-210" edge="1">
          <mxGeometry relative="1" as="geometry">
            <mxPoint x="860" y="170" as="sourcePoint" />
          </mxGeometry>
        </mxCell>
        <mxCell id="wVadPvTFdwAXPovWYY2v-218" value="Building Speakers" style="rounded=0;whiteSpace=wrap;html=1;" parent="wVadPvTFdwAXPovWYY2v-169" vertex="1">
          <mxGeometry x="690" y="220" width="120" height="60" as="geometry" />
        </mxCell>
        <mxCell id="wVadPvTFdwAXPovWYY2v-219" style="edgeStyle=orthogonalEdgeStyle;rounded=0;orthogonalLoop=1;jettySize=auto;html=1;exitX=1;exitY=0.5;exitDx=0;exitDy=0;entryX=0;entryY=0.5;entryDx=0;entryDy=0;endArrow=none;endFill=0;shape=link;" parent="wVadPvTFdwAXPovWYY2v-169" source="wVadPvTFdwAXPovWYY2v-203" target="wVadPvTFdwAXPovWYY2v-218" edge="1">
          <mxGeometry relative="1" as="geometry">
            <mxPoint x="860" y="260" as="sourcePoint" />
          </mxGeometry>
        </mxCell>
        <mxCell id="wVadPvTFdwAXPovWYY2v-221" value="Feed back into Channels" style="rounded=0;whiteSpace=wrap;html=1;" parent="wVadPvTFdwAXPovWYY2v-169" vertex="1">
          <mxGeometry x="530" y="390" width="120" height="60" as="geometry" />
        </mxCell>
        <mxCell id="wVadPvTFdwAXPovWYY2v-220" style="edgeStyle=orthogonalEdgeStyle;rounded=0;orthogonalLoop=1;jettySize=auto;html=1;exitX=0.5;exitY=1;exitDx=0;exitDy=0;entryX=0;entryY=0.5;entryDx=0;entryDy=0;" parent="wVadPvTFdwAXPovWYY2v-169" source="wVadPvTFdwAXPovWYY2v-221" target="wVadPvTFdwAXPovWYY2v-179" edge="1">
          <mxGeometry relative="1" as="geometry">
            <Array as="points">
              <mxPoint x="590" y="540" />
              <mxPoint x="20" y="540" />
              <mxPoint x="20" y="100" />
            </Array>
          </mxGeometry>
        </mxCell>
        <mxCell id="wVadPvTFdwAXPovWYY2v-222" style="edgeStyle=orthogonalEdgeStyle;rounded=0;orthogonalLoop=1;jettySize=auto;html=1;exitX=1;exitY=0.5;exitDx=0;exitDy=0;entryX=0;entryY=0.5;entryDx=0;entryDy=0;" parent="wVadPvTFdwAXPovWYY2v-169" source="wVadPvTFdwAXPovWYY2v-194" target="wVadPvTFdwAXPovWYY2v-221" edge="1">
          <mxGeometry relative="1" as="geometry" />
        </mxCell>
        <mxCell id="wVadPvTFdwAXPovWYY2v-223" style="edgeStyle=orthogonalEdgeStyle;rounded=0;orthogonalLoop=1;jettySize=auto;html=1;exitX=1;exitY=0.5;exitDx=0;exitDy=0;entryX=0;entryY=0.5;entryDx=0;entryDy=0;" parent="wVadPvTFdwAXPovWYY2v-169" source="wVadPvTFdwAXPovWYY2v-197" target="wVadPvTFdwAXPovWYY2v-221" edge="1">
          <mxGeometry relative="1" as="geometry" />
        </mxCell>
        <mxCell id="wVadPvTFdwAXPovWYY2v-224" style="edgeStyle=orthogonalEdgeStyle;rounded=0;orthogonalLoop=1;jettySize=auto;html=1;exitX=1;exitY=0.5;exitDx=0;exitDy=0;entryX=0;entryY=0.5;entryDx=0;entryDy=0;" parent="wVadPvTFdwAXPovWYY2v-169" source="wVadPvTFdwAXPovWYY2v-196" target="wVadPvTFdwAXPovWYY2v-221" edge="1">
          <mxGeometry relative="1" as="geometry">
            <mxPoint x="530" y="420" as="targetPoint" />
          </mxGeometry>
        </mxCell>
        <mxCell id="wVadPvTFdwAXPovWYY2v-225" style="edgeStyle=orthogonalEdgeStyle;rounded=0;orthogonalLoop=1;jettySize=auto;html=1;exitX=1;exitY=0.5;exitDx=0;exitDy=0;entryX=0;entryY=0.5;entryDx=0;entryDy=0;" parent="wVadPvTFdwAXPovWYY2v-169" source="wVadPvTFdwAXPovWYY2v-195" target="wVadPvTFdwAXPovWYY2v-221" edge="1">
          <mxGeometry relative="1" as="geometry">
            <mxPoint x="530" y="420" as="targetPoint" />
          </mxGeometry>
        </mxCell>
        <mxCell id="wVadPvTFdwAXPovWYY2v-209" value="" style="endArrow=none;dashed=1;html=1;rounded=0;exitX=0;exitY=1;exitDx=0;exitDy=0;" parent="1" source="wVadPvTFdwAXPovWYY2v-198" edge="1">
          <mxGeometry width="50" height="50" relative="1" as="geometry">
            <mxPoint x="160" y="1190" as="sourcePoint" />
            <mxPoint x="20" y="1100" as="targetPoint" />
          </mxGeometry>
        </mxCell>
        <mxCell id="wVadPvTFdwAXPovWYY2v-216" value="Main Speakers" style="rounded=0;whiteSpace=wrap;html=1;" parent="1" vertex="1">
          <mxGeometry x="710" y="830" width="120" height="60" as="geometry" />
        </mxCell>
        <mxCell id="wVadPvTFdwAXPovWYY2v-217" style="edgeStyle=orthogonalEdgeStyle;rounded=0;orthogonalLoop=1;jettySize=auto;html=1;exitX=1;exitY=0.5;exitDx=0;exitDy=0;entryX=0;entryY=0.5;entryDx=0;entryDy=0;endArrow=halfCircle;endFill=0;" parent="1" source="wVadPvTFdwAXPovWYY2v-199" target="wVadPvTFdwAXPovWYY2v-216" edge="1">
          <mxGeometry relative="1" as="geometry">
            <mxPoint x="880" y="870" as="sourcePoint" />
          </mxGeometry>
        </mxCell>
      </root>
    </mxGraphModel>
  </diagram>
  <diagram id="FDO-3HouhKI_4HE4JRvG" name="Page-2">
    <mxGraphModel dx="2540" dy="2704" grid="1" gridSize="10" guides="1" tooltips="1" connect="1" arrows="1" fold="1" page="1" pageScale="1" pageWidth="827" pageHeight="1169" math="0" shadow="0">
      <root>
        <mxCell id="0" />
        <mxCell id="1" parent="0" />
        <mxCell id="opjhmSzoHcYhFnEXp1DA-334" value="&lt;div&gt;XTA Speaker Router&lt;/div&gt;" style="swimlane;horizontal=0;whiteSpace=wrap;html=1;swimlaneFillColor=#CCCCCC;" vertex="1" parent="1">
          <mxGeometry x="860" y="1120" width="150" height="220" as="geometry" />
        </mxCell>
        <mxCell id="opjhmSzoHcYhFnEXp1DA-335" value="Output 6" style="rounded=0;whiteSpace=wrap;html=1;" vertex="1" parent="opjhmSzoHcYhFnEXp1DA-334">
          <mxGeometry x="30" y="20" width="110" height="30" as="geometry" />
        </mxCell>
        <mxCell id="opjhmSzoHcYhFnEXp1DA-336" value="Output 5" style="rounded=0;whiteSpace=wrap;html=1;" vertex="1" parent="opjhmSzoHcYhFnEXp1DA-334">
          <mxGeometry x="30" y="50" width="110" height="30" as="geometry" />
        </mxCell>
        <mxCell id="opjhmSzoHcYhFnEXp1DA-337" value="Output 4" style="rounded=0;whiteSpace=wrap;html=1;" vertex="1" parent="opjhmSzoHcYhFnEXp1DA-334">
          <mxGeometry x="30" y="80" width="110" height="30" as="geometry" />
        </mxCell>
        <mxCell id="opjhmSzoHcYhFnEXp1DA-338" value="Output 3" style="rounded=0;whiteSpace=wrap;html=1;" vertex="1" parent="opjhmSzoHcYhFnEXp1DA-334">
          <mxGeometry x="30" y="110" width="110" height="30" as="geometry" />
        </mxCell>
        <mxCell id="opjhmSzoHcYhFnEXp1DA-339" value="Output 2" style="rounded=0;whiteSpace=wrap;html=1;" vertex="1" parent="opjhmSzoHcYhFnEXp1DA-334">
          <mxGeometry x="30" y="140" width="110" height="30" as="geometry" />
        </mxCell>
        <mxCell id="opjhmSzoHcYhFnEXp1DA-340" value="Output 1" style="rounded=0;whiteSpace=wrap;html=1;" vertex="1" parent="opjhmSzoHcYhFnEXp1DA-334">
          <mxGeometry x="30" y="170" width="110" height="30" as="geometry" />
        </mxCell>
        <mxCell id="opjhmSzoHcYhFnEXp1DA-341" value="Patch Out" style="swimlane;whiteSpace=wrap;html=1;swimlaneFillColor=#CCCCCC;" vertex="1" parent="1">
          <mxGeometry x="1260" y="560" width="150" height="780" as="geometry" />
        </mxCell>
        <mxCell id="opjhmSzoHcYhFnEXp1DA-342" value="Output 6" style="rounded=0;whiteSpace=wrap;html=1;" vertex="1" parent="opjhmSzoHcYhFnEXp1DA-341">
          <mxGeometry x="20" y="580" width="110" height="30" as="geometry" />
        </mxCell>
        <mxCell id="opjhmSzoHcYhFnEXp1DA-343" value="Output 5" style="rounded=0;whiteSpace=wrap;html=1;" vertex="1" parent="opjhmSzoHcYhFnEXp1DA-341">
          <mxGeometry x="20" y="610" width="110" height="30" as="geometry" />
        </mxCell>
        <mxCell id="opjhmSzoHcYhFnEXp1DA-344" value="Output 4" style="rounded=0;whiteSpace=wrap;html=1;" vertex="1" parent="opjhmSzoHcYhFnEXp1DA-341">
          <mxGeometry x="20" y="640" width="110" height="30" as="geometry" />
        </mxCell>
        <mxCell id="opjhmSzoHcYhFnEXp1DA-345" value="Output 3" style="rounded=0;whiteSpace=wrap;html=1;" vertex="1" parent="opjhmSzoHcYhFnEXp1DA-341">
          <mxGeometry x="20" y="670" width="110" height="30" as="geometry" />
        </mxCell>
        <mxCell id="opjhmSzoHcYhFnEXp1DA-346" value="Output 2" style="rounded=0;whiteSpace=wrap;html=1;" vertex="1" parent="opjhmSzoHcYhFnEXp1DA-341">
          <mxGeometry x="20" y="700" width="110" height="30" as="geometry" />
        </mxCell>
        <mxCell id="opjhmSzoHcYhFnEXp1DA-347" value="Output 1" style="rounded=0;whiteSpace=wrap;html=1;" vertex="1" parent="opjhmSzoHcYhFnEXp1DA-341">
          <mxGeometry x="20" y="730" width="110" height="30" as="geometry" />
        </mxCell>
        <mxCell id="opjhmSzoHcYhFnEXp1DA-348" value="Output 12" style="rounded=0;whiteSpace=wrap;html=1;" vertex="1" parent="opjhmSzoHcYhFnEXp1DA-341">
          <mxGeometry x="20" y="400" width="110" height="30" as="geometry" />
        </mxCell>
        <mxCell id="opjhmSzoHcYhFnEXp1DA-349" value="Output 11" style="rounded=0;whiteSpace=wrap;html=1;" vertex="1" parent="opjhmSzoHcYhFnEXp1DA-341">
          <mxGeometry x="20" y="430" width="110" height="30" as="geometry" />
        </mxCell>
        <mxCell id="opjhmSzoHcYhFnEXp1DA-350" value="&lt;div&gt;Output 10&lt;/div&gt;" style="rounded=0;whiteSpace=wrap;html=1;" vertex="1" parent="opjhmSzoHcYhFnEXp1DA-341">
          <mxGeometry x="20" y="460" width="110" height="30" as="geometry" />
        </mxCell>
        <mxCell id="opjhmSzoHcYhFnEXp1DA-351" value="Output 9" style="rounded=0;whiteSpace=wrap;html=1;" vertex="1" parent="opjhmSzoHcYhFnEXp1DA-341">
          <mxGeometry x="20" y="490" width="110" height="30" as="geometry" />
        </mxCell>
        <mxCell id="opjhmSzoHcYhFnEXp1DA-352" value="Output 8" style="rounded=0;whiteSpace=wrap;html=1;" vertex="1" parent="opjhmSzoHcYhFnEXp1DA-341">
          <mxGeometry x="20" y="520" width="110" height="30" as="geometry" />
        </mxCell>
        <mxCell id="opjhmSzoHcYhFnEXp1DA-353" value="Output 7" style="rounded=0;whiteSpace=wrap;html=1;" vertex="1" parent="opjhmSzoHcYhFnEXp1DA-341">
          <mxGeometry x="20" y="550" width="110" height="30" as="geometry" />
        </mxCell>
        <mxCell id="opjhmSzoHcYhFnEXp1DA-354" value="Output 16" style="rounded=0;whiteSpace=wrap;html=1;" vertex="1" parent="opjhmSzoHcYhFnEXp1DA-341">
          <mxGeometry x="20" y="280" width="110" height="30" as="geometry" />
        </mxCell>
        <mxCell id="opjhmSzoHcYhFnEXp1DA-355" value="Output 15" style="rounded=0;whiteSpace=wrap;html=1;" vertex="1" parent="opjhmSzoHcYhFnEXp1DA-341">
          <mxGeometry x="20" y="310" width="110" height="30" as="geometry" />
        </mxCell>
        <mxCell id="opjhmSzoHcYhFnEXp1DA-356" value="Output 14" style="rounded=0;whiteSpace=wrap;html=1;" vertex="1" parent="opjhmSzoHcYhFnEXp1DA-341">
          <mxGeometry x="20" y="340" width="110" height="30" as="geometry" />
        </mxCell>
        <mxCell id="opjhmSzoHcYhFnEXp1DA-357" value="&lt;div&gt;Output 13&lt;/div&gt;" style="rounded=0;whiteSpace=wrap;html=1;" vertex="1" parent="opjhmSzoHcYhFnEXp1DA-341">
          <mxGeometry x="20" y="370" width="110" height="30" as="geometry" />
        </mxCell>
        <mxCell id="opjhmSzoHcYhFnEXp1DA-433" value="Output 17" style="rounded=0;whiteSpace=wrap;html=1;" vertex="1" parent="opjhmSzoHcYhFnEXp1DA-341">
          <mxGeometry x="20" y="250" width="110" height="30" as="geometry" />
        </mxCell>
        <mxCell id="opjhmSzoHcYhFnEXp1DA-434" value="Output 18" style="rounded=0;whiteSpace=wrap;html=1;" vertex="1" parent="opjhmSzoHcYhFnEXp1DA-341">
          <mxGeometry x="20" y="220" width="110" height="30" as="geometry" />
        </mxCell>
        <mxCell id="opjhmSzoHcYhFnEXp1DA-439" value="Output 20" style="rounded=0;whiteSpace=wrap;html=1;" vertex="1" parent="opjhmSzoHcYhFnEXp1DA-341">
          <mxGeometry x="20" y="160" width="110" height="30" as="geometry" />
        </mxCell>
        <mxCell id="opjhmSzoHcYhFnEXp1DA-440" value="Output 19" style="rounded=0;whiteSpace=wrap;html=1;" vertex="1" parent="opjhmSzoHcYhFnEXp1DA-341">
          <mxGeometry x="20" y="190" width="110" height="30" as="geometry" />
        </mxCell>
        <mxCell id="opjhmSzoHcYhFnEXp1DA-441" value="Output 22" style="rounded=0;whiteSpace=wrap;html=1;" vertex="1" parent="opjhmSzoHcYhFnEXp1DA-341">
          <mxGeometry x="20" y="100" width="110" height="30" as="geometry" />
        </mxCell>
        <mxCell id="opjhmSzoHcYhFnEXp1DA-442" value="Output 21" style="rounded=0;whiteSpace=wrap;html=1;" vertex="1" parent="opjhmSzoHcYhFnEXp1DA-341">
          <mxGeometry x="20" y="130" width="110" height="30" as="geometry" />
        </mxCell>
        <mxCell id="opjhmSzoHcYhFnEXp1DA-445" value="Output 24" style="rounded=0;whiteSpace=wrap;html=1;" vertex="1" parent="opjhmSzoHcYhFnEXp1DA-341">
          <mxGeometry x="20" y="40" width="110" height="30" as="geometry" />
        </mxCell>
        <mxCell id="opjhmSzoHcYhFnEXp1DA-446" value="Output 23" style="rounded=0;whiteSpace=wrap;html=1;" vertex="1" parent="opjhmSzoHcYhFnEXp1DA-341">
          <mxGeometry x="20" y="70" width="110" height="30" as="geometry" />
        </mxCell>
        <mxCell id="opjhmSzoHcYhFnEXp1DA-358" value="Patch In" style="swimlane;whiteSpace=wrap;html=1;swimlaneFillColor=#CCCCCC;" vertex="1" parent="1">
          <mxGeometry x="1040" y="560" width="150" height="780" as="geometry" />
        </mxCell>
        <mxCell id="opjhmSzoHcYhFnEXp1DA-359" value="Input 6" style="rounded=0;whiteSpace=wrap;html=1;" vertex="1" parent="opjhmSzoHcYhFnEXp1DA-358">
          <mxGeometry x="20" y="580" width="110" height="30" as="geometry" />
        </mxCell>
        <mxCell id="opjhmSzoHcYhFnEXp1DA-360" value="Input 5" style="rounded=0;whiteSpace=wrap;html=1;" vertex="1" parent="opjhmSzoHcYhFnEXp1DA-358">
          <mxGeometry x="20" y="610" width="110" height="30" as="geometry" />
        </mxCell>
        <mxCell id="opjhmSzoHcYhFnEXp1DA-361" value="Input 4" style="rounded=0;whiteSpace=wrap;html=1;" vertex="1" parent="opjhmSzoHcYhFnEXp1DA-358">
          <mxGeometry x="20" y="640" width="110" height="30" as="geometry" />
        </mxCell>
        <mxCell id="opjhmSzoHcYhFnEXp1DA-362" value="Input 3" style="rounded=0;whiteSpace=wrap;html=1;" vertex="1" parent="opjhmSzoHcYhFnEXp1DA-358">
          <mxGeometry x="20" y="670" width="110" height="30" as="geometry" />
        </mxCell>
        <mxCell id="opjhmSzoHcYhFnEXp1DA-363" value="Input 2" style="rounded=0;whiteSpace=wrap;html=1;" vertex="1" parent="opjhmSzoHcYhFnEXp1DA-358">
          <mxGeometry x="20" y="700" width="110" height="30" as="geometry" />
        </mxCell>
        <mxCell id="opjhmSzoHcYhFnEXp1DA-364" value="Input 1" style="rounded=0;whiteSpace=wrap;html=1;" vertex="1" parent="opjhmSzoHcYhFnEXp1DA-358">
          <mxGeometry x="20" y="730" width="110" height="30" as="geometry" />
        </mxCell>
        <mxCell id="opjhmSzoHcYhFnEXp1DA-365" value="Input 12" style="rounded=0;whiteSpace=wrap;html=1;" vertex="1" parent="opjhmSzoHcYhFnEXp1DA-358">
          <mxGeometry x="20" y="400" width="110" height="30" as="geometry" />
        </mxCell>
        <mxCell id="opjhmSzoHcYhFnEXp1DA-366" value="Input 11" style="rounded=0;whiteSpace=wrap;html=1;" vertex="1" parent="opjhmSzoHcYhFnEXp1DA-358">
          <mxGeometry x="20" y="430" width="110" height="30" as="geometry" />
        </mxCell>
        <mxCell id="opjhmSzoHcYhFnEXp1DA-367" value="Input 10" style="rounded=0;whiteSpace=wrap;html=1;" vertex="1" parent="opjhmSzoHcYhFnEXp1DA-358">
          <mxGeometry x="20" y="460" width="110" height="30" as="geometry" />
        </mxCell>
        <mxCell id="opjhmSzoHcYhFnEXp1DA-368" value="Input 9" style="rounded=0;whiteSpace=wrap;html=1;" vertex="1" parent="opjhmSzoHcYhFnEXp1DA-358">
          <mxGeometry x="20" y="490" width="110" height="30" as="geometry" />
        </mxCell>
        <mxCell id="opjhmSzoHcYhFnEXp1DA-369" value="Input 8" style="rounded=0;whiteSpace=wrap;html=1;" vertex="1" parent="opjhmSzoHcYhFnEXp1DA-358">
          <mxGeometry x="20" y="520" width="110" height="30" as="geometry" />
        </mxCell>
        <mxCell id="opjhmSzoHcYhFnEXp1DA-370" value="Input 16" style="rounded=0;whiteSpace=wrap;html=1;" vertex="1" parent="opjhmSzoHcYhFnEXp1DA-358">
          <mxGeometry x="20" y="280" width="110" height="30" as="geometry" />
        </mxCell>
        <mxCell id="opjhmSzoHcYhFnEXp1DA-371" value="Input 15" style="rounded=0;whiteSpace=wrap;html=1;" vertex="1" parent="opjhmSzoHcYhFnEXp1DA-358">
          <mxGeometry x="20" y="310" width="110" height="30" as="geometry" />
        </mxCell>
        <mxCell id="opjhmSzoHcYhFnEXp1DA-372" value="Input 14" style="rounded=0;whiteSpace=wrap;html=1;" vertex="1" parent="opjhmSzoHcYhFnEXp1DA-358">
          <mxGeometry x="20" y="340" width="110" height="30" as="geometry" />
        </mxCell>
        <mxCell id="opjhmSzoHcYhFnEXp1DA-373" value="Input 13" style="rounded=0;whiteSpace=wrap;html=1;" vertex="1" parent="opjhmSzoHcYhFnEXp1DA-358">
          <mxGeometry x="20" y="370" width="110" height="30" as="geometry" />
        </mxCell>
        <mxCell id="opjhmSzoHcYhFnEXp1DA-374" value="Input 7" style="rounded=0;whiteSpace=wrap;html=1;" vertex="1" parent="opjhmSzoHcYhFnEXp1DA-358">
          <mxGeometry x="20" y="550" width="110" height="30" as="geometry" />
        </mxCell>
        <mxCell id="opjhmSzoHcYhFnEXp1DA-425" value="Input 20" style="rounded=0;whiteSpace=wrap;html=1;" vertex="1" parent="opjhmSzoHcYhFnEXp1DA-358">
          <mxGeometry x="20" y="160" width="110" height="30" as="geometry" />
        </mxCell>
        <mxCell id="opjhmSzoHcYhFnEXp1DA-426" value="Input 19" style="rounded=0;whiteSpace=wrap;html=1;" vertex="1" parent="opjhmSzoHcYhFnEXp1DA-358">
          <mxGeometry x="20" y="190" width="110" height="30" as="geometry" />
        </mxCell>
        <mxCell id="opjhmSzoHcYhFnEXp1DA-427" value="Input 18" style="rounded=0;whiteSpace=wrap;html=1;" vertex="1" parent="opjhmSzoHcYhFnEXp1DA-358">
          <mxGeometry x="20" y="220" width="110" height="30" as="geometry" />
        </mxCell>
        <mxCell id="opjhmSzoHcYhFnEXp1DA-428" value="Input 17" style="rounded=0;whiteSpace=wrap;html=1;" vertex="1" parent="opjhmSzoHcYhFnEXp1DA-358">
          <mxGeometry x="20" y="250" width="110" height="30" as="geometry" />
        </mxCell>
        <mxCell id="opjhmSzoHcYhFnEXp1DA-429" value="Input 24" style="rounded=0;whiteSpace=wrap;html=1;" vertex="1" parent="opjhmSzoHcYhFnEXp1DA-358">
          <mxGeometry x="20" y="40" width="110" height="30" as="geometry" />
        </mxCell>
        <mxCell id="opjhmSzoHcYhFnEXp1DA-430" value="Input 23" style="rounded=0;whiteSpace=wrap;html=1;" vertex="1" parent="opjhmSzoHcYhFnEXp1DA-358">
          <mxGeometry x="20" y="70" width="110" height="30" as="geometry" />
        </mxCell>
        <mxCell id="opjhmSzoHcYhFnEXp1DA-431" value="Input 22" style="rounded=0;whiteSpace=wrap;html=1;" vertex="1" parent="opjhmSzoHcYhFnEXp1DA-358">
          <mxGeometry x="20" y="100" width="110" height="30" as="geometry" />
        </mxCell>
        <mxCell id="opjhmSzoHcYhFnEXp1DA-432" value="&lt;div&gt;Input 21&lt;/div&gt;" style="rounded=0;whiteSpace=wrap;html=1;" vertex="1" parent="opjhmSzoHcYhFnEXp1DA-358">
          <mxGeometry x="20" y="130" width="110" height="30" as="geometry" />
        </mxCell>
        <mxCell id="opjhmSzoHcYhFnEXp1DA-375" style="edgeStyle=orthogonalEdgeStyle;rounded=0;orthogonalLoop=1;jettySize=auto;html=1;exitX=1;exitY=0.5;exitDx=0;exitDy=0;entryX=0;entryY=0.5;entryDx=0;entryDy=0;" edge="1" parent="1" source="opjhmSzoHcYhFnEXp1DA-340" target="opjhmSzoHcYhFnEXp1DA-364">
          <mxGeometry relative="1" as="geometry" />
        </mxCell>
        <mxCell id="opjhmSzoHcYhFnEXp1DA-376" style="edgeStyle=orthogonalEdgeStyle;rounded=0;orthogonalLoop=1;jettySize=auto;html=1;exitX=1;exitY=0.5;exitDx=0;exitDy=0;entryX=0;entryY=0.5;entryDx=0;entryDy=0;" edge="1" parent="1" source="opjhmSzoHcYhFnEXp1DA-339" target="opjhmSzoHcYhFnEXp1DA-363">
          <mxGeometry relative="1" as="geometry" />
        </mxCell>
        <mxCell id="opjhmSzoHcYhFnEXp1DA-377" style="edgeStyle=orthogonalEdgeStyle;rounded=0;orthogonalLoop=1;jettySize=auto;html=1;exitX=1;exitY=0.5;exitDx=0;exitDy=0;entryX=0;entryY=0.5;entryDx=0;entryDy=0;" edge="1" parent="1" source="opjhmSzoHcYhFnEXp1DA-338" target="opjhmSzoHcYhFnEXp1DA-362">
          <mxGeometry relative="1" as="geometry" />
        </mxCell>
        <mxCell id="opjhmSzoHcYhFnEXp1DA-378" style="edgeStyle=orthogonalEdgeStyle;rounded=0;orthogonalLoop=1;jettySize=auto;html=1;exitX=1;exitY=0.5;exitDx=0;exitDy=0;entryX=0;entryY=0.5;entryDx=0;entryDy=0;" edge="1" parent="1" source="opjhmSzoHcYhFnEXp1DA-337" target="opjhmSzoHcYhFnEXp1DA-361">
          <mxGeometry relative="1" as="geometry" />
        </mxCell>
        <mxCell id="opjhmSzoHcYhFnEXp1DA-379" style="edgeStyle=orthogonalEdgeStyle;rounded=0;orthogonalLoop=1;jettySize=auto;html=1;exitX=1;exitY=0.5;exitDx=0;exitDy=0;entryX=0;entryY=0.5;entryDx=0;entryDy=0;" edge="1" parent="1" source="opjhmSzoHcYhFnEXp1DA-336" target="opjhmSzoHcYhFnEXp1DA-360">
          <mxGeometry relative="1" as="geometry" />
        </mxCell>
        <mxCell id="opjhmSzoHcYhFnEXp1DA-380" style="edgeStyle=orthogonalEdgeStyle;rounded=0;orthogonalLoop=1;jettySize=auto;html=1;exitX=1;exitY=0.5;exitDx=0;exitDy=0;entryX=0;entryY=0.5;entryDx=0;entryDy=0;" edge="1" parent="1" source="opjhmSzoHcYhFnEXp1DA-335" target="opjhmSzoHcYhFnEXp1DA-359">
          <mxGeometry relative="1" as="geometry" />
        </mxCell>
        <mxCell id="opjhmSzoHcYhFnEXp1DA-381" style="edgeStyle=orthogonalEdgeStyle;rounded=0;orthogonalLoop=1;jettySize=auto;html=1;exitX=1;exitY=0.5;exitDx=0;exitDy=0;" edge="1" parent="1" source="opjhmSzoHcYhFnEXp1DA-363" target="opjhmSzoHcYhFnEXp1DA-346">
          <mxGeometry relative="1" as="geometry" />
        </mxCell>
        <mxCell id="opjhmSzoHcYhFnEXp1DA-382" style="edgeStyle=orthogonalEdgeStyle;rounded=0;orthogonalLoop=1;jettySize=auto;html=1;exitX=1;exitY=0.5;exitDx=0;exitDy=0;" edge="1" parent="1" source="opjhmSzoHcYhFnEXp1DA-364" target="opjhmSzoHcYhFnEXp1DA-347">
          <mxGeometry relative="1" as="geometry" />
        </mxCell>
        <mxCell id="opjhmSzoHcYhFnEXp1DA-383" style="rounded=0;orthogonalLoop=1;jettySize=auto;html=1;exitX=1;exitY=0.5;exitDx=0;exitDy=0;entryX=0;entryY=0.5;entryDx=0;entryDy=0;edgeStyle=orthogonalEdgeStyle;fillColor=#1ba1e2;strokeColor=#006EAF;strokeWidth=2;" edge="1" parent="1" source="opjhmSzoHcYhFnEXp1DA-371" target="opjhmSzoHcYhFnEXp1DA-351">
          <mxGeometry relative="1" as="geometry">
            <Array as="points">
              <mxPoint x="1240" y="885" />
              <mxPoint x="1240" y="1065" />
            </Array>
          </mxGeometry>
        </mxCell>
        <mxCell id="opjhmSzoHcYhFnEXp1DA-384" style="rounded=0;orthogonalLoop=1;jettySize=auto;html=1;exitX=1;exitY=0.5;exitDx=0;exitDy=0;entryX=0;entryY=0.5;entryDx=0;entryDy=0;edgeStyle=orthogonalEdgeStyle;fillColor=#1ba1e2;strokeColor=#006EAF;strokeWidth=2;" edge="1" parent="1" source="opjhmSzoHcYhFnEXp1DA-370" target="opjhmSzoHcYhFnEXp1DA-350">
          <mxGeometry relative="1" as="geometry">
            <Array as="points">
              <mxPoint x="1240" y="855" />
              <mxPoint x="1240" y="1035" />
            </Array>
          </mxGeometry>
        </mxCell>
        <mxCell id="opjhmSzoHcYhFnEXp1DA-385" style="edgeStyle=orthogonalEdgeStyle;rounded=0;orthogonalLoop=1;jettySize=auto;html=1;exitX=1;exitY=0.5;exitDx=0;exitDy=0;strokeWidth=1;" edge="1" parent="1" source="opjhmSzoHcYhFnEXp1DA-351">
          <mxGeometry relative="1" as="geometry">
            <mxPoint x="950" y="1340" as="targetPoint" />
            <Array as="points">
              <mxPoint x="1430" y="1065" />
              <mxPoint x="1430" y="1390" />
              <mxPoint x="950" y="1390" />
            </Array>
          </mxGeometry>
        </mxCell>
        <mxCell id="opjhmSzoHcYhFnEXp1DA-386" style="edgeStyle=orthogonalEdgeStyle;rounded=0;orthogonalLoop=1;jettySize=auto;html=1;exitX=1;exitY=0.5;exitDx=0;exitDy=0;entryX=0.5;entryY=1;entryDx=0;entryDy=0;strokeWidth=1;" edge="1" parent="1" source="opjhmSzoHcYhFnEXp1DA-350" target="opjhmSzoHcYhFnEXp1DA-334">
          <mxGeometry relative="1" as="geometry">
            <mxPoint x="820" y="1250" as="targetPoint" />
            <Array as="points">
              <mxPoint x="1450" y="1035" />
              <mxPoint x="1450" y="1410" />
              <mxPoint x="935" y="1410" />
            </Array>
          </mxGeometry>
        </mxCell>
        <mxCell id="opjhmSzoHcYhFnEXp1DA-387" value="Behringer X32" style="swimlane;horizontal=0;whiteSpace=wrap;html=1;swimlaneFillColor=#CCCCCC;" vertex="1" parent="1">
          <mxGeometry x="860" y="820" width="150" height="280" as="geometry" />
        </mxCell>
        <mxCell id="opjhmSzoHcYhFnEXp1DA-388" value="Output 16" style="rounded=0;whiteSpace=wrap;html=1;" vertex="1" parent="opjhmSzoHcYhFnEXp1DA-387">
          <mxGeometry x="30" y="20" width="110" height="30" as="geometry" />
        </mxCell>
        <mxCell id="opjhmSzoHcYhFnEXp1DA-389" value="Output 15" style="rounded=0;whiteSpace=wrap;html=1;" vertex="1" parent="opjhmSzoHcYhFnEXp1DA-387">
          <mxGeometry x="30" y="50" width="110" height="30" as="geometry" />
        </mxCell>
        <mxCell id="opjhmSzoHcYhFnEXp1DA-390" value="Output 14" style="rounded=0;whiteSpace=wrap;html=1;" vertex="1" parent="opjhmSzoHcYhFnEXp1DA-387">
          <mxGeometry x="30" y="80" width="110" height="30" as="geometry" />
        </mxCell>
        <mxCell id="opjhmSzoHcYhFnEXp1DA-391" value="Output 13" style="rounded=0;whiteSpace=wrap;html=1;" vertex="1" parent="opjhmSzoHcYhFnEXp1DA-387">
          <mxGeometry x="30" y="110" width="110" height="30" as="geometry" />
        </mxCell>
        <mxCell id="opjhmSzoHcYhFnEXp1DA-392" value="Output 12" style="rounded=0;whiteSpace=wrap;html=1;" vertex="1" parent="opjhmSzoHcYhFnEXp1DA-387">
          <mxGeometry x="30" y="140" width="110" height="30" as="geometry" />
        </mxCell>
        <mxCell id="opjhmSzoHcYhFnEXp1DA-393" value="Output 11" style="rounded=0;whiteSpace=wrap;html=1;" vertex="1" parent="opjhmSzoHcYhFnEXp1DA-387">
          <mxGeometry x="30" y="170" width="110" height="30" as="geometry" />
        </mxCell>
        <mxCell id="opjhmSzoHcYhFnEXp1DA-463" value="Output 10" style="rounded=0;whiteSpace=wrap;html=1;" vertex="1" parent="opjhmSzoHcYhFnEXp1DA-387">
          <mxGeometry x="30" y="200" width="110" height="30" as="geometry" />
        </mxCell>
        <mxCell id="opjhmSzoHcYhFnEXp1DA-464" value="Output 9" style="rounded=0;whiteSpace=wrap;html=1;" vertex="1" parent="opjhmSzoHcYhFnEXp1DA-387">
          <mxGeometry x="30" y="230" width="110" height="30" as="geometry" />
        </mxCell>
        <mxCell id="opjhmSzoHcYhFnEXp1DA-394" style="edgeStyle=orthogonalEdgeStyle;rounded=0;orthogonalLoop=1;jettySize=auto;html=1;exitX=1;exitY=0.5;exitDx=0;exitDy=0;entryX=0;entryY=0.5;entryDx=0;entryDy=0;" edge="1" parent="1" source="opjhmSzoHcYhFnEXp1DA-388" target="opjhmSzoHcYhFnEXp1DA-370">
          <mxGeometry relative="1" as="geometry" />
        </mxCell>
        <mxCell id="opjhmSzoHcYhFnEXp1DA-395" style="edgeStyle=orthogonalEdgeStyle;rounded=0;orthogonalLoop=1;jettySize=auto;html=1;exitX=1;exitY=0.5;exitDx=0;exitDy=0;entryX=0;entryY=0.5;entryDx=0;entryDy=0;" edge="1" parent="1" source="opjhmSzoHcYhFnEXp1DA-389" target="opjhmSzoHcYhFnEXp1DA-371">
          <mxGeometry relative="1" as="geometry" />
        </mxCell>
        <mxCell id="opjhmSzoHcYhFnEXp1DA-396" value="Speakers" style="swimlane;whiteSpace=wrap;html=1;swimlaneFillColor=#CCCCCC;" vertex="1" parent="1">
          <mxGeometry x="1470" y="1040" width="150" height="300" as="geometry" />
        </mxCell>
        <mxCell id="opjhmSzoHcYhFnEXp1DA-397" value="Sub R" style="rounded=0;whiteSpace=wrap;html=1;" vertex="1" parent="opjhmSzoHcYhFnEXp1DA-396">
          <mxGeometry x="20" y="100" width="110" height="30" as="geometry" />
        </mxCell>
        <mxCell id="opjhmSzoHcYhFnEXp1DA-398" value="Sub L" style="rounded=0;whiteSpace=wrap;html=1;" vertex="1" parent="opjhmSzoHcYhFnEXp1DA-396">
          <mxGeometry x="20" y="130" width="110" height="30" as="geometry" />
        </mxCell>
        <mxCell id="opjhmSzoHcYhFnEXp1DA-399" value="Near R" style="rounded=0;whiteSpace=wrap;html=1;" vertex="1" parent="opjhmSzoHcYhFnEXp1DA-396">
          <mxGeometry x="20" y="160" width="110" height="30" as="geometry" />
        </mxCell>
        <mxCell id="opjhmSzoHcYhFnEXp1DA-400" value="Near L" style="rounded=0;whiteSpace=wrap;html=1;" vertex="1" parent="opjhmSzoHcYhFnEXp1DA-396">
          <mxGeometry x="20" y="190" width="110" height="30" as="geometry" />
        </mxCell>
        <mxCell id="opjhmSzoHcYhFnEXp1DA-401" value="Far R" style="rounded=0;whiteSpace=wrap;html=1;" vertex="1" parent="opjhmSzoHcYhFnEXp1DA-396">
          <mxGeometry x="20" y="220" width="110" height="30" as="geometry" />
        </mxCell>
        <mxCell id="opjhmSzoHcYhFnEXp1DA-402" value="Far L" style="rounded=0;whiteSpace=wrap;html=1;" vertex="1" parent="opjhmSzoHcYhFnEXp1DA-396">
          <mxGeometry x="20" y="250" width="110" height="30" as="geometry" />
        </mxCell>
        <mxCell id="opjhmSzoHcYhFnEXp1DA-461" value="Tech Box R" style="rounded=0;whiteSpace=wrap;html=1;" vertex="1" parent="opjhmSzoHcYhFnEXp1DA-396">
          <mxGeometry x="20" y="40" width="110" height="30" as="geometry" />
        </mxCell>
        <mxCell id="opjhmSzoHcYhFnEXp1DA-462" value="Tech Box L" style="rounded=0;whiteSpace=wrap;html=1;" vertex="1" parent="opjhmSzoHcYhFnEXp1DA-396">
          <mxGeometry x="20" y="70" width="110" height="30" as="geometry" />
        </mxCell>
        <mxCell id="opjhmSzoHcYhFnEXp1DA-403" style="edgeStyle=orthogonalEdgeStyle;rounded=0;orthogonalLoop=1;jettySize=auto;html=1;exitX=1;exitY=0.5;exitDx=0;exitDy=0;entryX=0;entryY=0.5;entryDx=0;entryDy=0;strokeWidth=1;" edge="1" parent="1" source="opjhmSzoHcYhFnEXp1DA-342" target="opjhmSzoHcYhFnEXp1DA-397">
          <mxGeometry relative="1" as="geometry" />
        </mxCell>
        <mxCell id="opjhmSzoHcYhFnEXp1DA-404" style="edgeStyle=orthogonalEdgeStyle;rounded=0;orthogonalLoop=1;jettySize=auto;html=1;exitX=1;exitY=0.5;exitDx=0;exitDy=0;entryX=0;entryY=0.5;entryDx=0;entryDy=0;strokeWidth=1;" edge="1" parent="1" source="opjhmSzoHcYhFnEXp1DA-343" target="opjhmSzoHcYhFnEXp1DA-398">
          <mxGeometry relative="1" as="geometry" />
        </mxCell>
        <mxCell id="opjhmSzoHcYhFnEXp1DA-405" style="edgeStyle=orthogonalEdgeStyle;rounded=0;orthogonalLoop=1;jettySize=auto;html=1;exitX=1;exitY=0.5;exitDx=0;exitDy=0;entryX=0;entryY=0.5;entryDx=0;entryDy=0;strokeWidth=1;" edge="1" parent="1" source="opjhmSzoHcYhFnEXp1DA-344" target="opjhmSzoHcYhFnEXp1DA-399">
          <mxGeometry relative="1" as="geometry" />
        </mxCell>
        <mxCell id="opjhmSzoHcYhFnEXp1DA-406" style="edgeStyle=orthogonalEdgeStyle;rounded=0;orthogonalLoop=1;jettySize=auto;html=1;exitX=1;exitY=0.5;exitDx=0;exitDy=0;strokeWidth=1;" edge="1" parent="1" source="opjhmSzoHcYhFnEXp1DA-345" target="opjhmSzoHcYhFnEXp1DA-400">
          <mxGeometry relative="1" as="geometry" />
        </mxCell>
        <mxCell id="opjhmSzoHcYhFnEXp1DA-407" style="edgeStyle=orthogonalEdgeStyle;rounded=0;orthogonalLoop=1;jettySize=auto;html=1;exitX=1;exitY=0.5;exitDx=0;exitDy=0;strokeWidth=1;" edge="1" parent="1" source="opjhmSzoHcYhFnEXp1DA-346" target="opjhmSzoHcYhFnEXp1DA-401">
          <mxGeometry relative="1" as="geometry" />
        </mxCell>
        <mxCell id="opjhmSzoHcYhFnEXp1DA-408" style="edgeStyle=orthogonalEdgeStyle;rounded=0;orthogonalLoop=1;jettySize=auto;html=1;exitX=1;exitY=0.5;exitDx=0;exitDy=0;strokeWidth=1;" edge="1" parent="1" source="opjhmSzoHcYhFnEXp1DA-347" target="opjhmSzoHcYhFnEXp1DA-402">
          <mxGeometry relative="1" as="geometry" />
        </mxCell>
        <mxCell id="opjhmSzoHcYhFnEXp1DA-412" style="edgeStyle=orthogonalEdgeStyle;rounded=0;orthogonalLoop=1;jettySize=auto;html=1;exitX=1;exitY=0.5;exitDx=0;exitDy=0;entryX=0;entryY=0.5;entryDx=0;entryDy=0;fillColor=#f8cecc;strokeColor=#b85450;strokeWidth=2;" edge="1" parent="1" source="opjhmSzoHcYhFnEXp1DA-367" target="opjhmSzoHcYhFnEXp1DA-344">
          <mxGeometry relative="1" as="geometry">
            <Array as="points">
              <mxPoint x="1210" y="1035" />
              <mxPoint x="1210" y="1215" />
            </Array>
          </mxGeometry>
        </mxCell>
        <mxCell id="opjhmSzoHcYhFnEXp1DA-413" style="edgeStyle=orthogonalEdgeStyle;rounded=0;orthogonalLoop=1;jettySize=auto;html=1;exitX=1;exitY=0.5;exitDx=0;exitDy=0;entryX=0;entryY=0.5;entryDx=0;entryDy=0;fillColor=#f8cecc;strokeColor=#b85450;strokeWidth=2;" edge="1" parent="1" source="opjhmSzoHcYhFnEXp1DA-368" target="opjhmSzoHcYhFnEXp1DA-345">
          <mxGeometry relative="1" as="geometry">
            <Array as="points">
              <mxPoint x="1210" y="1065" />
              <mxPoint x="1210" y="1245" />
            </Array>
          </mxGeometry>
        </mxCell>
        <mxCell id="opjhmSzoHcYhFnEXp1DA-414" style="edgeStyle=orthogonalEdgeStyle;rounded=0;orthogonalLoop=1;jettySize=auto;html=1;exitX=1;exitY=0.5;exitDx=0;exitDy=0;entryX=0;entryY=0.5;entryDx=0;entryDy=0;strokeWidth=2;fillColor=#60a917;strokeColor=#2D7600;" edge="1" parent="1" source="opjhmSzoHcYhFnEXp1DA-365" target="opjhmSzoHcYhFnEXp1DA-342">
          <mxGeometry relative="1" as="geometry">
            <Array as="points">
              <mxPoint x="1220" y="975" />
              <mxPoint x="1220" y="1155" />
            </Array>
          </mxGeometry>
        </mxCell>
        <mxCell id="opjhmSzoHcYhFnEXp1DA-416" style="edgeStyle=orthogonalEdgeStyle;rounded=0;orthogonalLoop=1;jettySize=auto;html=1;exitX=1;exitY=0.5;exitDx=0;exitDy=0;entryX=0;entryY=0.5;entryDx=0;entryDy=0;fillColor=#60a917;strokeColor=#2D7600;strokeWidth=2;" edge="1" parent="1" source="opjhmSzoHcYhFnEXp1DA-366" target="opjhmSzoHcYhFnEXp1DA-343">
          <mxGeometry relative="1" as="geometry">
            <mxPoint x="1260" y="1200" as="targetPoint" />
            <Array as="points">
              <mxPoint x="1220" y="1005" />
              <mxPoint x="1220" y="1185" />
            </Array>
          </mxGeometry>
        </mxCell>
        <mxCell id="opjhmSzoHcYhFnEXp1DA-447" value="Motu 828Mkii" style="swimlane;horizontal=0;whiteSpace=wrap;html=1;swimlaneFillColor=#CCCCCC;" vertex="1" parent="1">
          <mxGeometry x="860" y="600" width="150" height="220" as="geometry" />
        </mxCell>
        <mxCell id="opjhmSzoHcYhFnEXp1DA-448" value="Output 16" style="rounded=0;whiteSpace=wrap;html=1;" vertex="1" parent="opjhmSzoHcYhFnEXp1DA-447">
          <mxGeometry x="30" y="20" width="110" height="30" as="geometry" />
        </mxCell>
        <mxCell id="opjhmSzoHcYhFnEXp1DA-449" value="Output 15" style="rounded=0;whiteSpace=wrap;html=1;" vertex="1" parent="opjhmSzoHcYhFnEXp1DA-447">
          <mxGeometry x="30" y="50" width="110" height="30" as="geometry" />
        </mxCell>
        <mxCell id="opjhmSzoHcYhFnEXp1DA-450" value="Output 14" style="rounded=0;whiteSpace=wrap;html=1;" vertex="1" parent="opjhmSzoHcYhFnEXp1DA-447">
          <mxGeometry x="30" y="80" width="110" height="30" as="geometry" />
        </mxCell>
        <mxCell id="opjhmSzoHcYhFnEXp1DA-451" value="Output 13" style="rounded=0;whiteSpace=wrap;html=1;" vertex="1" parent="opjhmSzoHcYhFnEXp1DA-447">
          <mxGeometry x="30" y="110" width="110" height="30" as="geometry" />
        </mxCell>
        <mxCell id="opjhmSzoHcYhFnEXp1DA-452" value="Output 12" style="rounded=0;whiteSpace=wrap;html=1;" vertex="1" parent="opjhmSzoHcYhFnEXp1DA-447">
          <mxGeometry x="30" y="140" width="110" height="30" as="geometry" />
        </mxCell>
        <mxCell id="opjhmSzoHcYhFnEXp1DA-453" value="Output 11" style="rounded=0;whiteSpace=wrap;html=1;" vertex="1" parent="opjhmSzoHcYhFnEXp1DA-447">
          <mxGeometry x="30" y="170" width="110" height="30" as="geometry" />
        </mxCell>
        <mxCell id="opjhmSzoHcYhFnEXp1DA-455" style="edgeStyle=orthogonalEdgeStyle;rounded=0;orthogonalLoop=1;jettySize=auto;html=1;exitX=1;exitY=0.5;exitDx=0;exitDy=0;entryX=0;entryY=0.5;entryDx=0;entryDy=0;" edge="1" parent="1" source="opjhmSzoHcYhFnEXp1DA-453" target="opjhmSzoHcYhFnEXp1DA-428">
          <mxGeometry relative="1" as="geometry">
            <Array as="points">
              <mxPoint x="1030" y="785" />
              <mxPoint x="1030" y="825" />
            </Array>
          </mxGeometry>
        </mxCell>
        <mxCell id="opjhmSzoHcYhFnEXp1DA-456" style="edgeStyle=orthogonalEdgeStyle;rounded=0;orthogonalLoop=1;jettySize=auto;html=1;exitX=1;exitY=0.5;exitDx=0;exitDy=0;entryX=0;entryY=0.5;entryDx=0;entryDy=0;" edge="1" parent="1" source="opjhmSzoHcYhFnEXp1DA-452" target="opjhmSzoHcYhFnEXp1DA-427">
          <mxGeometry relative="1" as="geometry">
            <Array as="points">
              <mxPoint x="1020" y="755" />
              <mxPoint x="1020" y="795" />
            </Array>
          </mxGeometry>
        </mxCell>
        <mxCell id="opjhmSzoHcYhFnEXp1DA-457" style="edgeStyle=orthogonalEdgeStyle;rounded=0;orthogonalLoop=1;jettySize=auto;html=1;exitX=1;exitY=0.5;exitDx=0;exitDy=0;entryX=0;entryY=0.5;entryDx=0;entryDy=0;" edge="1" parent="1" source="opjhmSzoHcYhFnEXp1DA-451" target="opjhmSzoHcYhFnEXp1DA-426">
          <mxGeometry relative="1" as="geometry">
            <Array as="points">
              <mxPoint x="1030" y="725" />
              <mxPoint x="1030" y="765" />
            </Array>
          </mxGeometry>
        </mxCell>
        <mxCell id="opjhmSzoHcYhFnEXp1DA-458" style="edgeStyle=orthogonalEdgeStyle;rounded=0;orthogonalLoop=1;jettySize=auto;html=1;exitX=1;exitY=0.5;exitDx=0;exitDy=0;entryX=0;entryY=0.5;entryDx=0;entryDy=0;" edge="1" parent="1" source="opjhmSzoHcYhFnEXp1DA-450" target="opjhmSzoHcYhFnEXp1DA-425">
          <mxGeometry relative="1" as="geometry">
            <Array as="points">
              <mxPoint x="1020" y="695" />
              <mxPoint x="1020" y="735" />
            </Array>
          </mxGeometry>
        </mxCell>
        <mxCell id="opjhmSzoHcYhFnEXp1DA-459" style="edgeStyle=orthogonalEdgeStyle;rounded=0;orthogonalLoop=1;jettySize=auto;html=1;exitX=1;exitY=0.5;exitDx=0;exitDy=0;entryX=0;entryY=0.5;entryDx=0;entryDy=0;" edge="1" parent="1" source="opjhmSzoHcYhFnEXp1DA-449" target="opjhmSzoHcYhFnEXp1DA-432">
          <mxGeometry relative="1" as="geometry" />
        </mxCell>
        <mxCell id="opjhmSzoHcYhFnEXp1DA-460" style="edgeStyle=orthogonalEdgeStyle;rounded=0;orthogonalLoop=1;jettySize=auto;html=1;exitX=1;exitY=0.5;exitDx=0;exitDy=0;entryX=0;entryY=0.5;entryDx=0;entryDy=0;" edge="1" parent="1" source="opjhmSzoHcYhFnEXp1DA-448" target="opjhmSzoHcYhFnEXp1DA-431">
          <mxGeometry relative="1" as="geometry">
            <Array as="points">
              <mxPoint x="1020" y="635" />
              <mxPoint x="1020" y="675" />
            </Array>
          </mxGeometry>
        </mxCell>
        <mxCell id="opjhmSzoHcYhFnEXp1DA-467" style="edgeStyle=orthogonalEdgeStyle;rounded=0;orthogonalLoop=1;jettySize=auto;html=1;exitX=1;exitY=0.5;exitDx=0;exitDy=0;entryX=0;entryY=0.5;entryDx=0;entryDy=0;fillColor=#fff2cc;strokeColor=#d6b656;strokeWidth=2;" edge="1" parent="1" source="opjhmSzoHcYhFnEXp1DA-372" target="opjhmSzoHcYhFnEXp1DA-352">
          <mxGeometry relative="1" as="geometry">
            <Array as="points">
              <mxPoint x="1230" y="915" />
              <mxPoint x="1230" y="1095" />
            </Array>
          </mxGeometry>
        </mxCell>
        <mxCell id="opjhmSzoHcYhFnEXp1DA-468" style="edgeStyle=orthogonalEdgeStyle;rounded=0;orthogonalLoop=1;jettySize=auto;html=1;exitX=1;exitY=0.5;exitDx=0;exitDy=0;entryX=0;entryY=0.5;entryDx=0;entryDy=0;fillColor=#fff2cc;strokeColor=#d6b656;strokeWidth=2;" edge="1" parent="1" source="opjhmSzoHcYhFnEXp1DA-373" target="opjhmSzoHcYhFnEXp1DA-353">
          <mxGeometry relative="1" as="geometry">
            <Array as="points">
              <mxPoint x="1230" y="945" />
              <mxPoint x="1230" y="1125" />
            </Array>
          </mxGeometry>
        </mxCell>
        <mxCell id="opjhmSzoHcYhFnEXp1DA-469" style="edgeStyle=orthogonalEdgeStyle;rounded=0;orthogonalLoop=1;jettySize=auto;html=1;exitX=1;exitY=0.5;exitDx=0;exitDy=0;" edge="1" parent="1" source="opjhmSzoHcYhFnEXp1DA-352" target="opjhmSzoHcYhFnEXp1DA-461">
          <mxGeometry relative="1" as="geometry" />
        </mxCell>
        <mxCell id="opjhmSzoHcYhFnEXp1DA-470" style="edgeStyle=orthogonalEdgeStyle;rounded=0;orthogonalLoop=1;jettySize=auto;html=1;exitX=1;exitY=0.5;exitDx=0;exitDy=0;" edge="1" parent="1" source="opjhmSzoHcYhFnEXp1DA-353" target="opjhmSzoHcYhFnEXp1DA-462">
          <mxGeometry relative="1" as="geometry" />
        </mxCell>
        <mxCell id="opjhmSzoHcYhFnEXp1DA-471" style="rounded=0;orthogonalLoop=1;jettySize=auto;html=1;exitX=1;exitY=0.5;exitDx=0;exitDy=0;entryX=0;entryY=0.5;entryDx=0;entryDy=0;" edge="1" parent="1" source="opjhmSzoHcYhFnEXp1DA-390" target="opjhmSzoHcYhFnEXp1DA-367">
          <mxGeometry relative="1" as="geometry" />
        </mxCell>
        <mxCell id="opjhmSzoHcYhFnEXp1DA-472" style="rounded=0;orthogonalLoop=1;jettySize=auto;html=1;exitX=1;exitY=0.5;exitDx=0;exitDy=0;entryX=0;entryY=0.5;entryDx=0;entryDy=0;" edge="1" parent="1" source="opjhmSzoHcYhFnEXp1DA-391" target="opjhmSzoHcYhFnEXp1DA-368">
          <mxGeometry relative="1" as="geometry" />
        </mxCell>
        <mxCell id="opjhmSzoHcYhFnEXp1DA-473" style="edgeStyle=orthogonalEdgeStyle;rounded=0;orthogonalLoop=1;jettySize=auto;html=1;exitX=1;exitY=0.5;exitDx=0;exitDy=0;entryX=0;entryY=0.5;entryDx=0;entryDy=0;" edge="1" parent="1" source="opjhmSzoHcYhFnEXp1DA-392" target="opjhmSzoHcYhFnEXp1DA-365">
          <mxGeometry relative="1" as="geometry" />
        </mxCell>
        <mxCell id="opjhmSzoHcYhFnEXp1DA-474" style="edgeStyle=orthogonalEdgeStyle;rounded=0;orthogonalLoop=1;jettySize=auto;html=1;exitX=1;exitY=0.5;exitDx=0;exitDy=0;" edge="1" parent="1" source="opjhmSzoHcYhFnEXp1DA-393" target="opjhmSzoHcYhFnEXp1DA-366">
          <mxGeometry relative="1" as="geometry" />
        </mxCell>
        <mxCell id="opjhmSzoHcYhFnEXp1DA-475" style="rounded=0;orthogonalLoop=1;jettySize=auto;html=1;exitX=1;exitY=0.5;exitDx=0;exitDy=0;entryX=0;entryY=0.5;entryDx=0;entryDy=0;" edge="1" parent="1" source="opjhmSzoHcYhFnEXp1DA-464" target="opjhmSzoHcYhFnEXp1DA-373">
          <mxGeometry relative="1" as="geometry" />
        </mxCell>
        <mxCell id="opjhmSzoHcYhFnEXp1DA-476" style="rounded=0;orthogonalLoop=1;jettySize=auto;html=1;exitX=1;exitY=0.5;exitDx=0;exitDy=0;entryX=0;entryY=0.5;entryDx=0;entryDy=0;" edge="1" parent="1" source="opjhmSzoHcYhFnEXp1DA-463" target="opjhmSzoHcYhFnEXp1DA-372">
          <mxGeometry relative="1" as="geometry" />
        </mxCell>
        <mxCell id="opjhmSzoHcYhFnEXp1DA-477" value="&lt;div&gt;XTA Speaker Router&lt;/div&gt;" style="swimlane;horizontal=0;whiteSpace=wrap;html=1;swimlaneFillColor=#CCCCCC;" vertex="1" parent="1">
          <mxGeometry x="67" y="1325" width="150" height="220" as="geometry" />
        </mxCell>
        <mxCell id="opjhmSzoHcYhFnEXp1DA-478" value="Output 6" style="rounded=0;whiteSpace=wrap;html=1;" vertex="1" parent="opjhmSzoHcYhFnEXp1DA-477">
          <mxGeometry x="30" y="20" width="110" height="30" as="geometry" />
        </mxCell>
        <mxCell id="opjhmSzoHcYhFnEXp1DA-479" value="Output 5" style="rounded=0;whiteSpace=wrap;html=1;" vertex="1" parent="opjhmSzoHcYhFnEXp1DA-477">
          <mxGeometry x="30" y="50" width="110" height="30" as="geometry" />
        </mxCell>
        <mxCell id="opjhmSzoHcYhFnEXp1DA-480" value="Output 4" style="rounded=0;whiteSpace=wrap;html=1;" vertex="1" parent="opjhmSzoHcYhFnEXp1DA-477">
          <mxGeometry x="30" y="80" width="110" height="30" as="geometry" />
        </mxCell>
        <mxCell id="opjhmSzoHcYhFnEXp1DA-481" value="Output 3" style="rounded=0;whiteSpace=wrap;html=1;" vertex="1" parent="opjhmSzoHcYhFnEXp1DA-477">
          <mxGeometry x="30" y="110" width="110" height="30" as="geometry" />
        </mxCell>
        <mxCell id="opjhmSzoHcYhFnEXp1DA-482" value="Output 2" style="rounded=0;whiteSpace=wrap;html=1;" vertex="1" parent="opjhmSzoHcYhFnEXp1DA-477">
          <mxGeometry x="30" y="140" width="110" height="30" as="geometry" />
        </mxCell>
        <mxCell id="opjhmSzoHcYhFnEXp1DA-483" value="Output 1" style="rounded=0;whiteSpace=wrap;html=1;" vertex="1" parent="opjhmSzoHcYhFnEXp1DA-477">
          <mxGeometry x="30" y="170" width="110" height="30" as="geometry" />
        </mxCell>
        <mxCell id="opjhmSzoHcYhFnEXp1DA-484" value="Patch Out" style="swimlane;whiteSpace=wrap;html=1;swimlaneFillColor=#CCCCCC;" vertex="1" parent="1">
          <mxGeometry x="467" y="765" width="150" height="780" as="geometry" />
        </mxCell>
        <mxCell id="opjhmSzoHcYhFnEXp1DA-485" value="Output 6" style="rounded=0;whiteSpace=wrap;html=1;" vertex="1" parent="opjhmSzoHcYhFnEXp1DA-484">
          <mxGeometry x="20" y="580" width="110" height="30" as="geometry" />
        </mxCell>
        <mxCell id="opjhmSzoHcYhFnEXp1DA-486" value="Output 5" style="rounded=0;whiteSpace=wrap;html=1;" vertex="1" parent="opjhmSzoHcYhFnEXp1DA-484">
          <mxGeometry x="20" y="610" width="110" height="30" as="geometry" />
        </mxCell>
        <mxCell id="opjhmSzoHcYhFnEXp1DA-487" value="Output 4" style="rounded=0;whiteSpace=wrap;html=1;" vertex="1" parent="opjhmSzoHcYhFnEXp1DA-484">
          <mxGeometry x="20" y="640" width="110" height="30" as="geometry" />
        </mxCell>
        <mxCell id="opjhmSzoHcYhFnEXp1DA-488" value="Output 3" style="rounded=0;whiteSpace=wrap;html=1;" vertex="1" parent="opjhmSzoHcYhFnEXp1DA-484">
          <mxGeometry x="20" y="670" width="110" height="30" as="geometry" />
        </mxCell>
        <mxCell id="opjhmSzoHcYhFnEXp1DA-489" value="Output 2" style="rounded=0;whiteSpace=wrap;html=1;" vertex="1" parent="opjhmSzoHcYhFnEXp1DA-484">
          <mxGeometry x="20" y="700" width="110" height="30" as="geometry" />
        </mxCell>
        <mxCell id="opjhmSzoHcYhFnEXp1DA-490" value="Output 1" style="rounded=0;whiteSpace=wrap;html=1;" vertex="1" parent="opjhmSzoHcYhFnEXp1DA-484">
          <mxGeometry x="20" y="730" width="110" height="30" as="geometry" />
        </mxCell>
        <mxCell id="opjhmSzoHcYhFnEXp1DA-491" value="Output 12" style="rounded=0;whiteSpace=wrap;html=1;" vertex="1" parent="opjhmSzoHcYhFnEXp1DA-484">
          <mxGeometry x="20" y="400" width="110" height="30" as="geometry" />
        </mxCell>
        <mxCell id="opjhmSzoHcYhFnEXp1DA-492" value="Output 11" style="rounded=0;whiteSpace=wrap;html=1;" vertex="1" parent="opjhmSzoHcYhFnEXp1DA-484">
          <mxGeometry x="20" y="430" width="110" height="30" as="geometry" />
        </mxCell>
        <mxCell id="opjhmSzoHcYhFnEXp1DA-493" value="&lt;div&gt;Output 10&lt;/div&gt;" style="rounded=0;whiteSpace=wrap;html=1;" vertex="1" parent="opjhmSzoHcYhFnEXp1DA-484">
          <mxGeometry x="20" y="460" width="110" height="30" as="geometry" />
        </mxCell>
        <mxCell id="opjhmSzoHcYhFnEXp1DA-494" value="Output 9" style="rounded=0;whiteSpace=wrap;html=1;" vertex="1" parent="opjhmSzoHcYhFnEXp1DA-484">
          <mxGeometry x="20" y="490" width="110" height="30" as="geometry" />
        </mxCell>
        <mxCell id="opjhmSzoHcYhFnEXp1DA-495" value="Output 8" style="rounded=0;whiteSpace=wrap;html=1;" vertex="1" parent="opjhmSzoHcYhFnEXp1DA-484">
          <mxGeometry x="20" y="520" width="110" height="30" as="geometry" />
        </mxCell>
        <mxCell id="opjhmSzoHcYhFnEXp1DA-496" value="Output 7" style="rounded=0;whiteSpace=wrap;html=1;" vertex="1" parent="opjhmSzoHcYhFnEXp1DA-484">
          <mxGeometry x="20" y="550" width="110" height="30" as="geometry" />
        </mxCell>
        <mxCell id="opjhmSzoHcYhFnEXp1DA-497" value="Output 16" style="rounded=0;whiteSpace=wrap;html=1;" vertex="1" parent="opjhmSzoHcYhFnEXp1DA-484">
          <mxGeometry x="20" y="280" width="110" height="30" as="geometry" />
        </mxCell>
        <mxCell id="opjhmSzoHcYhFnEXp1DA-498" value="Output 15" style="rounded=0;whiteSpace=wrap;html=1;" vertex="1" parent="opjhmSzoHcYhFnEXp1DA-484">
          <mxGeometry x="20" y="310" width="110" height="30" as="geometry" />
        </mxCell>
        <mxCell id="opjhmSzoHcYhFnEXp1DA-499" value="Output 14" style="rounded=0;whiteSpace=wrap;html=1;" vertex="1" parent="opjhmSzoHcYhFnEXp1DA-484">
          <mxGeometry x="20" y="340" width="110" height="30" as="geometry" />
        </mxCell>
        <mxCell id="opjhmSzoHcYhFnEXp1DA-500" value="&lt;div&gt;Output 13&lt;/div&gt;" style="rounded=0;whiteSpace=wrap;html=1;" vertex="1" parent="opjhmSzoHcYhFnEXp1DA-484">
          <mxGeometry x="20" y="370" width="110" height="30" as="geometry" />
        </mxCell>
        <mxCell id="opjhmSzoHcYhFnEXp1DA-501" value="Output 17" style="rounded=0;whiteSpace=wrap;html=1;" vertex="1" parent="opjhmSzoHcYhFnEXp1DA-484">
          <mxGeometry x="20" y="250" width="110" height="30" as="geometry" />
        </mxCell>
        <mxCell id="opjhmSzoHcYhFnEXp1DA-502" value="Output 18" style="rounded=0;whiteSpace=wrap;html=1;" vertex="1" parent="opjhmSzoHcYhFnEXp1DA-484">
          <mxGeometry x="20" y="220" width="110" height="30" as="geometry" />
        </mxCell>
        <mxCell id="opjhmSzoHcYhFnEXp1DA-503" value="Output 20" style="rounded=0;whiteSpace=wrap;html=1;" vertex="1" parent="opjhmSzoHcYhFnEXp1DA-484">
          <mxGeometry x="20" y="160" width="110" height="30" as="geometry" />
        </mxCell>
        <mxCell id="opjhmSzoHcYhFnEXp1DA-504" value="Output 19" style="rounded=0;whiteSpace=wrap;html=1;" vertex="1" parent="opjhmSzoHcYhFnEXp1DA-484">
          <mxGeometry x="20" y="190" width="110" height="30" as="geometry" />
        </mxCell>
        <mxCell id="opjhmSzoHcYhFnEXp1DA-505" value="Output 22" style="rounded=0;whiteSpace=wrap;html=1;" vertex="1" parent="opjhmSzoHcYhFnEXp1DA-484">
          <mxGeometry x="20" y="100" width="110" height="30" as="geometry" />
        </mxCell>
        <mxCell id="opjhmSzoHcYhFnEXp1DA-506" value="Output 21" style="rounded=0;whiteSpace=wrap;html=1;" vertex="1" parent="opjhmSzoHcYhFnEXp1DA-484">
          <mxGeometry x="20" y="130" width="110" height="30" as="geometry" />
        </mxCell>
        <mxCell id="opjhmSzoHcYhFnEXp1DA-507" value="Output 24" style="rounded=0;whiteSpace=wrap;html=1;" vertex="1" parent="opjhmSzoHcYhFnEXp1DA-484">
          <mxGeometry x="20" y="40" width="110" height="30" as="geometry" />
        </mxCell>
        <mxCell id="opjhmSzoHcYhFnEXp1DA-508" value="Output 23" style="rounded=0;whiteSpace=wrap;html=1;" vertex="1" parent="opjhmSzoHcYhFnEXp1DA-484">
          <mxGeometry x="20" y="70" width="110" height="30" as="geometry" />
        </mxCell>
        <mxCell id="opjhmSzoHcYhFnEXp1DA-509" value="Patch In" style="swimlane;whiteSpace=wrap;html=1;swimlaneFillColor=#CCCCCC;" vertex="1" parent="1">
          <mxGeometry x="247" y="765" width="150" height="780" as="geometry" />
        </mxCell>
        <mxCell id="opjhmSzoHcYhFnEXp1DA-510" value="Input 6" style="rounded=0;whiteSpace=wrap;html=1;" vertex="1" parent="opjhmSzoHcYhFnEXp1DA-509">
          <mxGeometry x="20" y="580" width="110" height="30" as="geometry" />
        </mxCell>
        <mxCell id="opjhmSzoHcYhFnEXp1DA-511" value="Input 5" style="rounded=0;whiteSpace=wrap;html=1;" vertex="1" parent="opjhmSzoHcYhFnEXp1DA-509">
          <mxGeometry x="20" y="610" width="110" height="30" as="geometry" />
        </mxCell>
        <mxCell id="opjhmSzoHcYhFnEXp1DA-512" value="Input 4" style="rounded=0;whiteSpace=wrap;html=1;" vertex="1" parent="opjhmSzoHcYhFnEXp1DA-509">
          <mxGeometry x="20" y="640" width="110" height="30" as="geometry" />
        </mxCell>
        <mxCell id="opjhmSzoHcYhFnEXp1DA-513" value="Input 3" style="rounded=0;whiteSpace=wrap;html=1;" vertex="1" parent="opjhmSzoHcYhFnEXp1DA-509">
          <mxGeometry x="20" y="670" width="110" height="30" as="geometry" />
        </mxCell>
        <mxCell id="opjhmSzoHcYhFnEXp1DA-514" value="Input 2" style="rounded=0;whiteSpace=wrap;html=1;" vertex="1" parent="opjhmSzoHcYhFnEXp1DA-509">
          <mxGeometry x="20" y="700" width="110" height="30" as="geometry" />
        </mxCell>
        <mxCell id="opjhmSzoHcYhFnEXp1DA-515" value="Input 1" style="rounded=0;whiteSpace=wrap;html=1;" vertex="1" parent="opjhmSzoHcYhFnEXp1DA-509">
          <mxGeometry x="20" y="730" width="110" height="30" as="geometry" />
        </mxCell>
        <mxCell id="opjhmSzoHcYhFnEXp1DA-516" value="Input 12" style="rounded=0;whiteSpace=wrap;html=1;" vertex="1" parent="opjhmSzoHcYhFnEXp1DA-509">
          <mxGeometry x="20" y="400" width="110" height="30" as="geometry" />
        </mxCell>
        <mxCell id="opjhmSzoHcYhFnEXp1DA-517" value="Input 11" style="rounded=0;whiteSpace=wrap;html=1;" vertex="1" parent="opjhmSzoHcYhFnEXp1DA-509">
          <mxGeometry x="20" y="430" width="110" height="30" as="geometry" />
        </mxCell>
        <mxCell id="opjhmSzoHcYhFnEXp1DA-518" value="Input 10" style="rounded=0;whiteSpace=wrap;html=1;" vertex="1" parent="opjhmSzoHcYhFnEXp1DA-509">
          <mxGeometry x="20" y="460" width="110" height="30" as="geometry" />
        </mxCell>
        <mxCell id="opjhmSzoHcYhFnEXp1DA-519" value="Input 9" style="rounded=0;whiteSpace=wrap;html=1;" vertex="1" parent="opjhmSzoHcYhFnEXp1DA-509">
          <mxGeometry x="20" y="490" width="110" height="30" as="geometry" />
        </mxCell>
        <mxCell id="opjhmSzoHcYhFnEXp1DA-520" value="Input 8" style="rounded=0;whiteSpace=wrap;html=1;" vertex="1" parent="opjhmSzoHcYhFnEXp1DA-509">
          <mxGeometry x="20" y="520" width="110" height="30" as="geometry" />
        </mxCell>
        <mxCell id="opjhmSzoHcYhFnEXp1DA-521" value="Input 16" style="rounded=0;whiteSpace=wrap;html=1;" vertex="1" parent="opjhmSzoHcYhFnEXp1DA-509">
          <mxGeometry x="20" y="280" width="110" height="30" as="geometry" />
        </mxCell>
        <mxCell id="opjhmSzoHcYhFnEXp1DA-522" value="Input 15" style="rounded=0;whiteSpace=wrap;html=1;" vertex="1" parent="opjhmSzoHcYhFnEXp1DA-509">
          <mxGeometry x="20" y="310" width="110" height="30" as="geometry" />
        </mxCell>
        <mxCell id="opjhmSzoHcYhFnEXp1DA-523" value="Input 14" style="rounded=0;whiteSpace=wrap;html=1;" vertex="1" parent="opjhmSzoHcYhFnEXp1DA-509">
          <mxGeometry x="20" y="340" width="110" height="30" as="geometry" />
        </mxCell>
        <mxCell id="opjhmSzoHcYhFnEXp1DA-524" value="Input 13" style="rounded=0;whiteSpace=wrap;html=1;" vertex="1" parent="opjhmSzoHcYhFnEXp1DA-509">
          <mxGeometry x="20" y="370" width="110" height="30" as="geometry" />
        </mxCell>
        <mxCell id="opjhmSzoHcYhFnEXp1DA-525" value="Input 7" style="rounded=0;whiteSpace=wrap;html=1;" vertex="1" parent="opjhmSzoHcYhFnEXp1DA-509">
          <mxGeometry x="20" y="550" width="110" height="30" as="geometry" />
        </mxCell>
        <mxCell id="opjhmSzoHcYhFnEXp1DA-526" value="Input 20" style="rounded=0;whiteSpace=wrap;html=1;" vertex="1" parent="opjhmSzoHcYhFnEXp1DA-509">
          <mxGeometry x="20" y="160" width="110" height="30" as="geometry" />
        </mxCell>
        <mxCell id="opjhmSzoHcYhFnEXp1DA-527" value="Input 19" style="rounded=0;whiteSpace=wrap;html=1;" vertex="1" parent="opjhmSzoHcYhFnEXp1DA-509">
          <mxGeometry x="20" y="190" width="110" height="30" as="geometry" />
        </mxCell>
        <mxCell id="opjhmSzoHcYhFnEXp1DA-528" value="Input 18" style="rounded=0;whiteSpace=wrap;html=1;" vertex="1" parent="opjhmSzoHcYhFnEXp1DA-509">
          <mxGeometry x="20" y="220" width="110" height="30" as="geometry" />
        </mxCell>
        <mxCell id="opjhmSzoHcYhFnEXp1DA-529" value="Input 17" style="rounded=0;whiteSpace=wrap;html=1;" vertex="1" parent="opjhmSzoHcYhFnEXp1DA-509">
          <mxGeometry x="20" y="250" width="110" height="30" as="geometry" />
        </mxCell>
        <mxCell id="opjhmSzoHcYhFnEXp1DA-530" value="Input 24" style="rounded=0;whiteSpace=wrap;html=1;" vertex="1" parent="opjhmSzoHcYhFnEXp1DA-509">
          <mxGeometry x="20" y="40" width="110" height="30" as="geometry" />
        </mxCell>
        <mxCell id="opjhmSzoHcYhFnEXp1DA-531" value="Input 23" style="rounded=0;whiteSpace=wrap;html=1;" vertex="1" parent="opjhmSzoHcYhFnEXp1DA-509">
          <mxGeometry x="20" y="70" width="110" height="30" as="geometry" />
        </mxCell>
        <mxCell id="opjhmSzoHcYhFnEXp1DA-532" value="Input 22" style="rounded=0;whiteSpace=wrap;html=1;" vertex="1" parent="opjhmSzoHcYhFnEXp1DA-509">
          <mxGeometry x="20" y="100" width="110" height="30" as="geometry" />
        </mxCell>
        <mxCell id="opjhmSzoHcYhFnEXp1DA-533" value="&lt;div&gt;Input 21&lt;/div&gt;" style="rounded=0;whiteSpace=wrap;html=1;" vertex="1" parent="opjhmSzoHcYhFnEXp1DA-509">
          <mxGeometry x="20" y="130" width="110" height="30" as="geometry" />
        </mxCell>
        <mxCell id="opjhmSzoHcYhFnEXp1DA-534" style="edgeStyle=orthogonalEdgeStyle;rounded=0;orthogonalLoop=1;jettySize=auto;html=1;exitX=1;exitY=0.5;exitDx=0;exitDy=0;entryX=0;entryY=0.5;entryDx=0;entryDy=0;" edge="1" parent="1" source="opjhmSzoHcYhFnEXp1DA-483" target="opjhmSzoHcYhFnEXp1DA-515">
          <mxGeometry relative="1" as="geometry" />
        </mxCell>
        <mxCell id="opjhmSzoHcYhFnEXp1DA-535" style="edgeStyle=orthogonalEdgeStyle;rounded=0;orthogonalLoop=1;jettySize=auto;html=1;exitX=1;exitY=0.5;exitDx=0;exitDy=0;entryX=0;entryY=0.5;entryDx=0;entryDy=0;" edge="1" parent="1" source="opjhmSzoHcYhFnEXp1DA-482" target="opjhmSzoHcYhFnEXp1DA-514">
          <mxGeometry relative="1" as="geometry" />
        </mxCell>
        <mxCell id="opjhmSzoHcYhFnEXp1DA-536" style="edgeStyle=orthogonalEdgeStyle;rounded=0;orthogonalLoop=1;jettySize=auto;html=1;exitX=1;exitY=0.5;exitDx=0;exitDy=0;entryX=0;entryY=0.5;entryDx=0;entryDy=0;" edge="1" parent="1" source="opjhmSzoHcYhFnEXp1DA-481" target="opjhmSzoHcYhFnEXp1DA-513">
          <mxGeometry relative="1" as="geometry" />
        </mxCell>
        <mxCell id="opjhmSzoHcYhFnEXp1DA-537" style="edgeStyle=orthogonalEdgeStyle;rounded=0;orthogonalLoop=1;jettySize=auto;html=1;exitX=1;exitY=0.5;exitDx=0;exitDy=0;entryX=0;entryY=0.5;entryDx=0;entryDy=0;" edge="1" parent="1" source="opjhmSzoHcYhFnEXp1DA-480" target="opjhmSzoHcYhFnEXp1DA-512">
          <mxGeometry relative="1" as="geometry" />
        </mxCell>
        <mxCell id="opjhmSzoHcYhFnEXp1DA-538" style="edgeStyle=orthogonalEdgeStyle;rounded=0;orthogonalLoop=1;jettySize=auto;html=1;exitX=1;exitY=0.5;exitDx=0;exitDy=0;entryX=0;entryY=0.5;entryDx=0;entryDy=0;" edge="1" parent="1" source="opjhmSzoHcYhFnEXp1DA-479" target="opjhmSzoHcYhFnEXp1DA-511">
          <mxGeometry relative="1" as="geometry" />
        </mxCell>
        <mxCell id="opjhmSzoHcYhFnEXp1DA-539" style="edgeStyle=orthogonalEdgeStyle;rounded=0;orthogonalLoop=1;jettySize=auto;html=1;exitX=1;exitY=0.5;exitDx=0;exitDy=0;entryX=0;entryY=0.5;entryDx=0;entryDy=0;" edge="1" parent="1" source="opjhmSzoHcYhFnEXp1DA-478" target="opjhmSzoHcYhFnEXp1DA-510">
          <mxGeometry relative="1" as="geometry" />
        </mxCell>
        <mxCell id="opjhmSzoHcYhFnEXp1DA-540" style="edgeStyle=orthogonalEdgeStyle;rounded=0;orthogonalLoop=1;jettySize=auto;html=1;exitX=1;exitY=0.5;exitDx=0;exitDy=0;" edge="1" parent="1" source="opjhmSzoHcYhFnEXp1DA-514" target="opjhmSzoHcYhFnEXp1DA-489">
          <mxGeometry relative="1" as="geometry" />
        </mxCell>
        <mxCell id="opjhmSzoHcYhFnEXp1DA-541" style="edgeStyle=orthogonalEdgeStyle;rounded=0;orthogonalLoop=1;jettySize=auto;html=1;exitX=1;exitY=0.5;exitDx=0;exitDy=0;" edge="1" parent="1" source="opjhmSzoHcYhFnEXp1DA-515" target="opjhmSzoHcYhFnEXp1DA-490">
          <mxGeometry relative="1" as="geometry" />
        </mxCell>
        <mxCell id="opjhmSzoHcYhFnEXp1DA-544" style="edgeStyle=orthogonalEdgeStyle;rounded=0;orthogonalLoop=1;jettySize=auto;html=1;exitX=1;exitY=0.5;exitDx=0;exitDy=0;strokeWidth=1;" edge="1" parent="1" source="opjhmSzoHcYhFnEXp1DA-494">
          <mxGeometry relative="1" as="geometry">
            <mxPoint x="157" y="1545" as="targetPoint" />
            <Array as="points">
              <mxPoint x="637" y="1270" />
              <mxPoint x="637" y="1595" />
              <mxPoint x="157" y="1595" />
            </Array>
          </mxGeometry>
        </mxCell>
        <mxCell id="opjhmSzoHcYhFnEXp1DA-545" style="edgeStyle=orthogonalEdgeStyle;rounded=0;orthogonalLoop=1;jettySize=auto;html=1;exitX=1;exitY=0.5;exitDx=0;exitDy=0;entryX=0.5;entryY=1;entryDx=0;entryDy=0;strokeWidth=1;" edge="1" parent="1" source="opjhmSzoHcYhFnEXp1DA-493" target="opjhmSzoHcYhFnEXp1DA-477">
          <mxGeometry relative="1" as="geometry">
            <mxPoint x="27" y="1455" as="targetPoint" />
            <Array as="points">
              <mxPoint x="657" y="1240" />
              <mxPoint x="657" y="1615" />
              <mxPoint x="142" y="1615" />
            </Array>
          </mxGeometry>
        </mxCell>
        <mxCell id="opjhmSzoHcYhFnEXp1DA-546" value="Behringer X32" style="swimlane;horizontal=0;whiteSpace=wrap;html=1;swimlaneFillColor=#CCCCCC;" vertex="1" parent="1">
          <mxGeometry x="67" y="1025" width="150" height="280" as="geometry" />
        </mxCell>
        <mxCell id="opjhmSzoHcYhFnEXp1DA-547" value="Output 16" style="rounded=0;whiteSpace=wrap;html=1;" vertex="1" parent="opjhmSzoHcYhFnEXp1DA-546">
          <mxGeometry x="30" y="20" width="110" height="30" as="geometry" />
        </mxCell>
        <mxCell id="opjhmSzoHcYhFnEXp1DA-548" value="Output 15" style="rounded=0;whiteSpace=wrap;html=1;" vertex="1" parent="opjhmSzoHcYhFnEXp1DA-546">
          <mxGeometry x="30" y="50" width="110" height="30" as="geometry" />
        </mxCell>
        <mxCell id="opjhmSzoHcYhFnEXp1DA-549" value="Output 14" style="rounded=0;whiteSpace=wrap;html=1;" vertex="1" parent="opjhmSzoHcYhFnEXp1DA-546">
          <mxGeometry x="30" y="80" width="110" height="30" as="geometry" />
        </mxCell>
        <mxCell id="opjhmSzoHcYhFnEXp1DA-550" value="Output 13" style="rounded=0;whiteSpace=wrap;html=1;" vertex="1" parent="opjhmSzoHcYhFnEXp1DA-546">
          <mxGeometry x="30" y="110" width="110" height="30" as="geometry" />
        </mxCell>
        <mxCell id="opjhmSzoHcYhFnEXp1DA-551" value="Output 12" style="rounded=0;whiteSpace=wrap;html=1;" vertex="1" parent="opjhmSzoHcYhFnEXp1DA-546">
          <mxGeometry x="30" y="140" width="110" height="30" as="geometry" />
        </mxCell>
        <mxCell id="opjhmSzoHcYhFnEXp1DA-552" value="Output 11" style="rounded=0;whiteSpace=wrap;html=1;" vertex="1" parent="opjhmSzoHcYhFnEXp1DA-546">
          <mxGeometry x="30" y="170" width="110" height="30" as="geometry" />
        </mxCell>
        <mxCell id="opjhmSzoHcYhFnEXp1DA-553" value="Output 10" style="rounded=0;whiteSpace=wrap;html=1;" vertex="1" parent="opjhmSzoHcYhFnEXp1DA-546">
          <mxGeometry x="30" y="200" width="110" height="30" as="geometry" />
        </mxCell>
        <mxCell id="opjhmSzoHcYhFnEXp1DA-554" value="Output 9" style="rounded=0;whiteSpace=wrap;html=1;" vertex="1" parent="opjhmSzoHcYhFnEXp1DA-546">
          <mxGeometry x="30" y="230" width="110" height="30" as="geometry" />
        </mxCell>
        <mxCell id="opjhmSzoHcYhFnEXp1DA-555" style="edgeStyle=orthogonalEdgeStyle;rounded=0;orthogonalLoop=1;jettySize=auto;html=1;exitX=1;exitY=0.5;exitDx=0;exitDy=0;entryX=0;entryY=0.5;entryDx=0;entryDy=0;" edge="1" parent="1" source="opjhmSzoHcYhFnEXp1DA-547" target="opjhmSzoHcYhFnEXp1DA-521">
          <mxGeometry relative="1" as="geometry" />
        </mxCell>
        <mxCell id="opjhmSzoHcYhFnEXp1DA-556" style="edgeStyle=orthogonalEdgeStyle;rounded=0;orthogonalLoop=1;jettySize=auto;html=1;exitX=1;exitY=0.5;exitDx=0;exitDy=0;entryX=0;entryY=0.5;entryDx=0;entryDy=0;" edge="1" parent="1" source="opjhmSzoHcYhFnEXp1DA-548" target="opjhmSzoHcYhFnEXp1DA-522">
          <mxGeometry relative="1" as="geometry" />
        </mxCell>
        <mxCell id="opjhmSzoHcYhFnEXp1DA-557" value="Speakers" style="swimlane;whiteSpace=wrap;html=1;swimlaneFillColor=#CCCCCC;" vertex="1" parent="1">
          <mxGeometry x="677" y="1245" width="150" height="300" as="geometry" />
        </mxCell>
        <mxCell id="opjhmSzoHcYhFnEXp1DA-558" value="Sub R" style="rounded=0;whiteSpace=wrap;html=1;" vertex="1" parent="opjhmSzoHcYhFnEXp1DA-557">
          <mxGeometry x="20" y="100" width="110" height="30" as="geometry" />
        </mxCell>
        <mxCell id="opjhmSzoHcYhFnEXp1DA-559" value="Sub L" style="rounded=0;whiteSpace=wrap;html=1;" vertex="1" parent="opjhmSzoHcYhFnEXp1DA-557">
          <mxGeometry x="20" y="130" width="110" height="30" as="geometry" />
        </mxCell>
        <mxCell id="opjhmSzoHcYhFnEXp1DA-560" value="Near R" style="rounded=0;whiteSpace=wrap;html=1;" vertex="1" parent="opjhmSzoHcYhFnEXp1DA-557">
          <mxGeometry x="20" y="160" width="110" height="30" as="geometry" />
        </mxCell>
        <mxCell id="opjhmSzoHcYhFnEXp1DA-561" value="Near L" style="rounded=0;whiteSpace=wrap;html=1;" vertex="1" parent="opjhmSzoHcYhFnEXp1DA-557">
          <mxGeometry x="20" y="190" width="110" height="30" as="geometry" />
        </mxCell>
        <mxCell id="opjhmSzoHcYhFnEXp1DA-562" value="Far R" style="rounded=0;whiteSpace=wrap;html=1;" vertex="1" parent="opjhmSzoHcYhFnEXp1DA-557">
          <mxGeometry x="20" y="220" width="110" height="30" as="geometry" />
        </mxCell>
        <mxCell id="opjhmSzoHcYhFnEXp1DA-563" value="Far L" style="rounded=0;whiteSpace=wrap;html=1;" vertex="1" parent="opjhmSzoHcYhFnEXp1DA-557">
          <mxGeometry x="20" y="250" width="110" height="30" as="geometry" />
        </mxCell>
        <mxCell id="opjhmSzoHcYhFnEXp1DA-564" value="Tech Box R" style="rounded=0;whiteSpace=wrap;html=1;" vertex="1" parent="opjhmSzoHcYhFnEXp1DA-557">
          <mxGeometry x="20" y="40" width="110" height="30" as="geometry" />
        </mxCell>
        <mxCell id="opjhmSzoHcYhFnEXp1DA-565" value="Tech Box L" style="rounded=0;whiteSpace=wrap;html=1;" vertex="1" parent="opjhmSzoHcYhFnEXp1DA-557">
          <mxGeometry x="20" y="70" width="110" height="30" as="geometry" />
        </mxCell>
        <mxCell id="opjhmSzoHcYhFnEXp1DA-566" style="edgeStyle=orthogonalEdgeStyle;rounded=0;orthogonalLoop=1;jettySize=auto;html=1;exitX=1;exitY=0.5;exitDx=0;exitDy=0;entryX=0;entryY=0.5;entryDx=0;entryDy=0;strokeWidth=1;" edge="1" parent="1" source="opjhmSzoHcYhFnEXp1DA-485" target="opjhmSzoHcYhFnEXp1DA-558">
          <mxGeometry relative="1" as="geometry" />
        </mxCell>
        <mxCell id="opjhmSzoHcYhFnEXp1DA-567" style="edgeStyle=orthogonalEdgeStyle;rounded=0;orthogonalLoop=1;jettySize=auto;html=1;exitX=1;exitY=0.5;exitDx=0;exitDy=0;entryX=0;entryY=0.5;entryDx=0;entryDy=0;strokeWidth=1;" edge="1" parent="1" source="opjhmSzoHcYhFnEXp1DA-486" target="opjhmSzoHcYhFnEXp1DA-559">
          <mxGeometry relative="1" as="geometry" />
        </mxCell>
        <mxCell id="opjhmSzoHcYhFnEXp1DA-568" style="edgeStyle=orthogonalEdgeStyle;rounded=0;orthogonalLoop=1;jettySize=auto;html=1;exitX=1;exitY=0.5;exitDx=0;exitDy=0;entryX=0;entryY=0.5;entryDx=0;entryDy=0;strokeWidth=1;" edge="1" parent="1" source="opjhmSzoHcYhFnEXp1DA-487" target="opjhmSzoHcYhFnEXp1DA-560">
          <mxGeometry relative="1" as="geometry" />
        </mxCell>
        <mxCell id="opjhmSzoHcYhFnEXp1DA-569" style="edgeStyle=orthogonalEdgeStyle;rounded=0;orthogonalLoop=1;jettySize=auto;html=1;exitX=1;exitY=0.5;exitDx=0;exitDy=0;strokeWidth=1;" edge="1" parent="1" source="opjhmSzoHcYhFnEXp1DA-488" target="opjhmSzoHcYhFnEXp1DA-561">
          <mxGeometry relative="1" as="geometry" />
        </mxCell>
        <mxCell id="opjhmSzoHcYhFnEXp1DA-570" style="edgeStyle=orthogonalEdgeStyle;rounded=0;orthogonalLoop=1;jettySize=auto;html=1;exitX=1;exitY=0.5;exitDx=0;exitDy=0;strokeWidth=1;" edge="1" parent="1" source="opjhmSzoHcYhFnEXp1DA-489" target="opjhmSzoHcYhFnEXp1DA-562">
          <mxGeometry relative="1" as="geometry" />
        </mxCell>
        <mxCell id="opjhmSzoHcYhFnEXp1DA-571" style="edgeStyle=orthogonalEdgeStyle;rounded=0;orthogonalLoop=1;jettySize=auto;html=1;exitX=1;exitY=0.5;exitDx=0;exitDy=0;strokeWidth=1;" edge="1" parent="1" source="opjhmSzoHcYhFnEXp1DA-490" target="opjhmSzoHcYhFnEXp1DA-563">
          <mxGeometry relative="1" as="geometry" />
        </mxCell>
        <mxCell id="opjhmSzoHcYhFnEXp1DA-576" value="Motu 828Mkii" style="swimlane;horizontal=0;whiteSpace=wrap;html=1;swimlaneFillColor=#CCCCCC;" vertex="1" parent="1">
          <mxGeometry x="67" y="805" width="150" height="220" as="geometry" />
        </mxCell>
        <mxCell id="opjhmSzoHcYhFnEXp1DA-577" value="Output 16" style="rounded=0;whiteSpace=wrap;html=1;" vertex="1" parent="opjhmSzoHcYhFnEXp1DA-576">
          <mxGeometry x="30" y="20" width="110" height="30" as="geometry" />
        </mxCell>
        <mxCell id="opjhmSzoHcYhFnEXp1DA-578" value="Output 15" style="rounded=0;whiteSpace=wrap;html=1;" vertex="1" parent="opjhmSzoHcYhFnEXp1DA-576">
          <mxGeometry x="30" y="50" width="110" height="30" as="geometry" />
        </mxCell>
        <mxCell id="opjhmSzoHcYhFnEXp1DA-579" value="Output 14" style="rounded=0;whiteSpace=wrap;html=1;" vertex="1" parent="opjhmSzoHcYhFnEXp1DA-576">
          <mxGeometry x="30" y="80" width="110" height="30" as="geometry" />
        </mxCell>
        <mxCell id="opjhmSzoHcYhFnEXp1DA-580" value="Output 13" style="rounded=0;whiteSpace=wrap;html=1;" vertex="1" parent="opjhmSzoHcYhFnEXp1DA-576">
          <mxGeometry x="30" y="110" width="110" height="30" as="geometry" />
        </mxCell>
        <mxCell id="opjhmSzoHcYhFnEXp1DA-581" value="Output 12" style="rounded=0;whiteSpace=wrap;html=1;" vertex="1" parent="opjhmSzoHcYhFnEXp1DA-576">
          <mxGeometry x="30" y="140" width="110" height="30" as="geometry" />
        </mxCell>
        <mxCell id="opjhmSzoHcYhFnEXp1DA-582" value="Output 11" style="rounded=0;whiteSpace=wrap;html=1;" vertex="1" parent="opjhmSzoHcYhFnEXp1DA-576">
          <mxGeometry x="30" y="170" width="110" height="30" as="geometry" />
        </mxCell>
        <mxCell id="opjhmSzoHcYhFnEXp1DA-583" style="edgeStyle=orthogonalEdgeStyle;rounded=0;orthogonalLoop=1;jettySize=auto;html=1;exitX=1;exitY=0.5;exitDx=0;exitDy=0;entryX=0;entryY=0.5;entryDx=0;entryDy=0;" edge="1" parent="1" source="opjhmSzoHcYhFnEXp1DA-582" target="opjhmSzoHcYhFnEXp1DA-529">
          <mxGeometry relative="1" as="geometry">
            <Array as="points">
              <mxPoint x="237" y="990" />
              <mxPoint x="237" y="1030" />
            </Array>
          </mxGeometry>
        </mxCell>
        <mxCell id="opjhmSzoHcYhFnEXp1DA-584" style="edgeStyle=orthogonalEdgeStyle;rounded=0;orthogonalLoop=1;jettySize=auto;html=1;exitX=1;exitY=0.5;exitDx=0;exitDy=0;entryX=0;entryY=0.5;entryDx=0;entryDy=0;" edge="1" parent="1" source="opjhmSzoHcYhFnEXp1DA-581" target="opjhmSzoHcYhFnEXp1DA-528">
          <mxGeometry relative="1" as="geometry">
            <Array as="points">
              <mxPoint x="227" y="960" />
              <mxPoint x="227" y="1000" />
            </Array>
          </mxGeometry>
        </mxCell>
        <mxCell id="opjhmSzoHcYhFnEXp1DA-585" style="edgeStyle=orthogonalEdgeStyle;rounded=0;orthogonalLoop=1;jettySize=auto;html=1;exitX=1;exitY=0.5;exitDx=0;exitDy=0;entryX=0;entryY=0.5;entryDx=0;entryDy=0;" edge="1" parent="1" source="opjhmSzoHcYhFnEXp1DA-580" target="opjhmSzoHcYhFnEXp1DA-527">
          <mxGeometry relative="1" as="geometry">
            <Array as="points">
              <mxPoint x="237" y="930" />
              <mxPoint x="237" y="970" />
            </Array>
          </mxGeometry>
        </mxCell>
        <mxCell id="opjhmSzoHcYhFnEXp1DA-586" style="edgeStyle=orthogonalEdgeStyle;rounded=0;orthogonalLoop=1;jettySize=auto;html=1;exitX=1;exitY=0.5;exitDx=0;exitDy=0;entryX=0;entryY=0.5;entryDx=0;entryDy=0;" edge="1" parent="1" source="opjhmSzoHcYhFnEXp1DA-579" target="opjhmSzoHcYhFnEXp1DA-526">
          <mxGeometry relative="1" as="geometry">
            <Array as="points">
              <mxPoint x="227" y="900" />
              <mxPoint x="227" y="940" />
            </Array>
          </mxGeometry>
        </mxCell>
        <mxCell id="opjhmSzoHcYhFnEXp1DA-587" style="edgeStyle=orthogonalEdgeStyle;rounded=0;orthogonalLoop=1;jettySize=auto;html=1;exitX=1;exitY=0.5;exitDx=0;exitDy=0;entryX=0;entryY=0.5;entryDx=0;entryDy=0;" edge="1" parent="1" source="opjhmSzoHcYhFnEXp1DA-578" target="opjhmSzoHcYhFnEXp1DA-533">
          <mxGeometry relative="1" as="geometry" />
        </mxCell>
        <mxCell id="opjhmSzoHcYhFnEXp1DA-588" style="edgeStyle=orthogonalEdgeStyle;rounded=0;orthogonalLoop=1;jettySize=auto;html=1;exitX=1;exitY=0.5;exitDx=0;exitDy=0;entryX=0;entryY=0.5;entryDx=0;entryDy=0;" edge="1" parent="1" source="opjhmSzoHcYhFnEXp1DA-577" target="opjhmSzoHcYhFnEXp1DA-532">
          <mxGeometry relative="1" as="geometry">
            <Array as="points">
              <mxPoint x="227" y="840" />
              <mxPoint x="227" y="880" />
            </Array>
          </mxGeometry>
        </mxCell>
        <mxCell id="opjhmSzoHcYhFnEXp1DA-591" style="edgeStyle=orthogonalEdgeStyle;rounded=0;orthogonalLoop=1;jettySize=auto;html=1;exitX=1;exitY=0.5;exitDx=0;exitDy=0;" edge="1" parent="1" source="opjhmSzoHcYhFnEXp1DA-495" target="opjhmSzoHcYhFnEXp1DA-564">
          <mxGeometry relative="1" as="geometry" />
        </mxCell>
        <mxCell id="opjhmSzoHcYhFnEXp1DA-592" style="edgeStyle=orthogonalEdgeStyle;rounded=0;orthogonalLoop=1;jettySize=auto;html=1;exitX=1;exitY=0.5;exitDx=0;exitDy=0;" edge="1" parent="1" source="opjhmSzoHcYhFnEXp1DA-496" target="opjhmSzoHcYhFnEXp1DA-565">
          <mxGeometry relative="1" as="geometry" />
        </mxCell>
        <mxCell id="opjhmSzoHcYhFnEXp1DA-593" style="rounded=0;orthogonalLoop=1;jettySize=auto;html=1;exitX=1;exitY=0.5;exitDx=0;exitDy=0;entryX=0;entryY=0.5;entryDx=0;entryDy=0;" edge="1" parent="1" source="opjhmSzoHcYhFnEXp1DA-549" target="opjhmSzoHcYhFnEXp1DA-518">
          <mxGeometry relative="1" as="geometry" />
        </mxCell>
        <mxCell id="opjhmSzoHcYhFnEXp1DA-594" style="rounded=0;orthogonalLoop=1;jettySize=auto;html=1;exitX=1;exitY=0.5;exitDx=0;exitDy=0;entryX=0;entryY=0.5;entryDx=0;entryDy=0;" edge="1" parent="1" source="opjhmSzoHcYhFnEXp1DA-550" target="opjhmSzoHcYhFnEXp1DA-519">
          <mxGeometry relative="1" as="geometry" />
        </mxCell>
        <mxCell id="opjhmSzoHcYhFnEXp1DA-595" style="edgeStyle=orthogonalEdgeStyle;rounded=0;orthogonalLoop=1;jettySize=auto;html=1;exitX=1;exitY=0.5;exitDx=0;exitDy=0;entryX=0;entryY=0.5;entryDx=0;entryDy=0;" edge="1" parent="1" source="opjhmSzoHcYhFnEXp1DA-551" target="opjhmSzoHcYhFnEXp1DA-516">
          <mxGeometry relative="1" as="geometry" />
        </mxCell>
        <mxCell id="opjhmSzoHcYhFnEXp1DA-596" style="edgeStyle=orthogonalEdgeStyle;rounded=0;orthogonalLoop=1;jettySize=auto;html=1;exitX=1;exitY=0.5;exitDx=0;exitDy=0;" edge="1" parent="1" source="opjhmSzoHcYhFnEXp1DA-552" target="opjhmSzoHcYhFnEXp1DA-517">
          <mxGeometry relative="1" as="geometry" />
        </mxCell>
        <mxCell id="opjhmSzoHcYhFnEXp1DA-597" style="rounded=0;orthogonalLoop=1;jettySize=auto;html=1;exitX=1;exitY=0.5;exitDx=0;exitDy=0;entryX=0;entryY=0.5;entryDx=0;entryDy=0;" edge="1" parent="1" source="opjhmSzoHcYhFnEXp1DA-554" target="opjhmSzoHcYhFnEXp1DA-524">
          <mxGeometry relative="1" as="geometry" />
        </mxCell>
        <mxCell id="opjhmSzoHcYhFnEXp1DA-598" style="rounded=0;orthogonalLoop=1;jettySize=auto;html=1;exitX=1;exitY=0.5;exitDx=0;exitDy=0;entryX=0;entryY=0.5;entryDx=0;entryDy=0;" edge="1" parent="1" source="opjhmSzoHcYhFnEXp1DA-553" target="opjhmSzoHcYhFnEXp1DA-523">
          <mxGeometry relative="1" as="geometry" />
        </mxCell>
        <mxCell id="opjhmSzoHcYhFnEXp1DA-599" style="edgeStyle=orthogonalEdgeStyle;rounded=0;orthogonalLoop=1;jettySize=auto;html=1;exitX=1;exitY=0.5;exitDx=0;exitDy=0;entryX=0;entryY=0.5;entryDx=0;entryDy=0;" edge="1" parent="1" source="opjhmSzoHcYhFnEXp1DA-513" target="opjhmSzoHcYhFnEXp1DA-488">
          <mxGeometry relative="1" as="geometry" />
        </mxCell>
        <mxCell id="opjhmSzoHcYhFnEXp1DA-600" style="edgeStyle=orthogonalEdgeStyle;rounded=0;orthogonalLoop=1;jettySize=auto;html=1;exitX=1;exitY=0.5;exitDx=0;exitDy=0;" edge="1" parent="1" source="opjhmSzoHcYhFnEXp1DA-512" target="opjhmSzoHcYhFnEXp1DA-487">
          <mxGeometry relative="1" as="geometry" />
        </mxCell>
        <mxCell id="opjhmSzoHcYhFnEXp1DA-601" style="edgeStyle=orthogonalEdgeStyle;rounded=0;orthogonalLoop=1;jettySize=auto;html=1;exitX=1;exitY=0.5;exitDx=0;exitDy=0;entryX=0;entryY=0.5;entryDx=0;entryDy=0;" edge="1" parent="1" source="opjhmSzoHcYhFnEXp1DA-511" target="opjhmSzoHcYhFnEXp1DA-486">
          <mxGeometry relative="1" as="geometry" />
        </mxCell>
        <mxCell id="opjhmSzoHcYhFnEXp1DA-602" style="edgeStyle=orthogonalEdgeStyle;rounded=0;orthogonalLoop=1;jettySize=auto;html=1;exitX=1;exitY=0.5;exitDx=0;exitDy=0;" edge="1" parent="1" source="opjhmSzoHcYhFnEXp1DA-510" target="opjhmSzoHcYhFnEXp1DA-485">
          <mxGeometry relative="1" as="geometry" />
        </mxCell>
        <mxCell id="opjhmSzoHcYhFnEXp1DA-603" style="edgeStyle=orthogonalEdgeStyle;rounded=0;orthogonalLoop=1;jettySize=auto;html=1;exitX=1;exitY=0.5;exitDx=0;exitDy=0;fillColor=#fff2cc;strokeColor=#d6b656;strokeWidth=2;" edge="1" parent="1" source="opjhmSzoHcYhFnEXp1DA-524" target="opjhmSzoHcYhFnEXp1DA-496">
          <mxGeometry relative="1" as="geometry">
            <Array as="points">
              <mxPoint x="410" y="1150" />
              <mxPoint x="410" y="1330" />
            </Array>
          </mxGeometry>
        </mxCell>
        <mxCell id="opjhmSzoHcYhFnEXp1DA-604" style="edgeStyle=orthogonalEdgeStyle;rounded=0;orthogonalLoop=1;jettySize=auto;html=1;exitX=1;exitY=0.5;exitDx=0;exitDy=0;fillColor=#fff2cc;strokeColor=#d6b656;strokeWidth=2;" edge="1" parent="1" source="opjhmSzoHcYhFnEXp1DA-523" target="opjhmSzoHcYhFnEXp1DA-495">
          <mxGeometry relative="1" as="geometry">
            <Array as="points">
              <mxPoint x="420" y="1120" />
              <mxPoint x="420" y="1300" />
            </Array>
          </mxGeometry>
        </mxCell>
        <mxCell id="opjhmSzoHcYhFnEXp1DA-607" style="edgeStyle=orthogonalEdgeStyle;rounded=0;orthogonalLoop=1;jettySize=auto;html=1;exitX=1;exitY=0.5;exitDx=0;exitDy=0;entryX=0;entryY=0.5;entryDx=0;entryDy=0;fillColor=#dae8fc;strokeColor=#6c8ebf;strokeWidth=2;" edge="1" parent="1" source="opjhmSzoHcYhFnEXp1DA-521" target="opjhmSzoHcYhFnEXp1DA-493">
          <mxGeometry relative="1" as="geometry">
            <Array as="points">
              <mxPoint x="450" y="1060" />
              <mxPoint x="450" y="1240" />
            </Array>
          </mxGeometry>
        </mxCell>
        <mxCell id="opjhmSzoHcYhFnEXp1DA-608" style="edgeStyle=orthogonalEdgeStyle;rounded=0;orthogonalLoop=1;jettySize=auto;html=1;exitX=1;exitY=0.5;exitDx=0;exitDy=0;entryX=0;entryY=0.5;entryDx=0;entryDy=0;fillColor=#dae8fc;strokeColor=#6c8ebf;strokeWidth=2;" edge="1" parent="1" source="opjhmSzoHcYhFnEXp1DA-522" target="opjhmSzoHcYhFnEXp1DA-494">
          <mxGeometry relative="1" as="geometry">
            <Array as="points">
              <mxPoint x="440" y="1090" />
              <mxPoint x="440" y="1270" />
            </Array>
          </mxGeometry>
        </mxCell>
        <mxCell id="opjhmSzoHcYhFnEXp1DA-609" value="&lt;div&gt;XTA Speaker Router&lt;/div&gt;" style="swimlane;horizontal=0;whiteSpace=wrap;html=1;swimlaneFillColor=#CCCCCC;" vertex="1" parent="1">
          <mxGeometry x="67" y="400" width="150" height="220" as="geometry" />
        </mxCell>
        <mxCell id="opjhmSzoHcYhFnEXp1DA-610" value="Output 6" style="rounded=0;whiteSpace=wrap;html=1;" vertex="1" parent="opjhmSzoHcYhFnEXp1DA-609">
          <mxGeometry x="30" y="20" width="110" height="30" as="geometry" />
        </mxCell>
        <mxCell id="opjhmSzoHcYhFnEXp1DA-611" value="Output 5" style="rounded=0;whiteSpace=wrap;html=1;" vertex="1" parent="opjhmSzoHcYhFnEXp1DA-609">
          <mxGeometry x="30" y="50" width="110" height="30" as="geometry" />
        </mxCell>
        <mxCell id="opjhmSzoHcYhFnEXp1DA-612" value="Output 4" style="rounded=0;whiteSpace=wrap;html=1;" vertex="1" parent="opjhmSzoHcYhFnEXp1DA-609">
          <mxGeometry x="30" y="80" width="110" height="30" as="geometry" />
        </mxCell>
        <mxCell id="opjhmSzoHcYhFnEXp1DA-613" value="Output 3" style="rounded=0;whiteSpace=wrap;html=1;" vertex="1" parent="opjhmSzoHcYhFnEXp1DA-609">
          <mxGeometry x="30" y="110" width="110" height="30" as="geometry" />
        </mxCell>
        <mxCell id="opjhmSzoHcYhFnEXp1DA-614" value="Output 2" style="rounded=0;whiteSpace=wrap;html=1;" vertex="1" parent="opjhmSzoHcYhFnEXp1DA-609">
          <mxGeometry x="30" y="140" width="110" height="30" as="geometry" />
        </mxCell>
        <mxCell id="opjhmSzoHcYhFnEXp1DA-615" value="Output 1" style="rounded=0;whiteSpace=wrap;html=1;" vertex="1" parent="opjhmSzoHcYhFnEXp1DA-609">
          <mxGeometry x="30" y="170" width="110" height="30" as="geometry" />
        </mxCell>
        <mxCell id="opjhmSzoHcYhFnEXp1DA-616" value="Patch Out" style="swimlane;whiteSpace=wrap;html=1;swimlaneFillColor=#CCCCCC;" vertex="1" parent="1">
          <mxGeometry x="467" y="-160" width="150" height="780" as="geometry" />
        </mxCell>
        <mxCell id="opjhmSzoHcYhFnEXp1DA-617" value="Output 6" style="rounded=0;whiteSpace=wrap;html=1;" vertex="1" parent="opjhmSzoHcYhFnEXp1DA-616">
          <mxGeometry x="20" y="580" width="110" height="30" as="geometry" />
        </mxCell>
        <mxCell id="opjhmSzoHcYhFnEXp1DA-618" value="Output 5" style="rounded=0;whiteSpace=wrap;html=1;" vertex="1" parent="opjhmSzoHcYhFnEXp1DA-616">
          <mxGeometry x="20" y="610" width="110" height="30" as="geometry" />
        </mxCell>
        <mxCell id="opjhmSzoHcYhFnEXp1DA-619" value="Output 4" style="rounded=0;whiteSpace=wrap;html=1;" vertex="1" parent="opjhmSzoHcYhFnEXp1DA-616">
          <mxGeometry x="20" y="640" width="110" height="30" as="geometry" />
        </mxCell>
        <mxCell id="opjhmSzoHcYhFnEXp1DA-620" value="Output 3" style="rounded=0;whiteSpace=wrap;html=1;" vertex="1" parent="opjhmSzoHcYhFnEXp1DA-616">
          <mxGeometry x="20" y="670" width="110" height="30" as="geometry" />
        </mxCell>
        <mxCell id="opjhmSzoHcYhFnEXp1DA-621" value="Output 2" style="rounded=0;whiteSpace=wrap;html=1;" vertex="1" parent="opjhmSzoHcYhFnEXp1DA-616">
          <mxGeometry x="20" y="700" width="110" height="30" as="geometry" />
        </mxCell>
        <mxCell id="opjhmSzoHcYhFnEXp1DA-622" value="Output 1" style="rounded=0;whiteSpace=wrap;html=1;" vertex="1" parent="opjhmSzoHcYhFnEXp1DA-616">
          <mxGeometry x="20" y="730" width="110" height="30" as="geometry" />
        </mxCell>
        <mxCell id="opjhmSzoHcYhFnEXp1DA-623" value="Output 12" style="rounded=0;whiteSpace=wrap;html=1;" vertex="1" parent="opjhmSzoHcYhFnEXp1DA-616">
          <mxGeometry x="20" y="400" width="110" height="30" as="geometry" />
        </mxCell>
        <mxCell id="opjhmSzoHcYhFnEXp1DA-624" value="Output 11" style="rounded=0;whiteSpace=wrap;html=1;" vertex="1" parent="opjhmSzoHcYhFnEXp1DA-616">
          <mxGeometry x="20" y="430" width="110" height="30" as="geometry" />
        </mxCell>
        <mxCell id="opjhmSzoHcYhFnEXp1DA-625" value="&lt;div&gt;Output 10&lt;/div&gt;" style="rounded=0;whiteSpace=wrap;html=1;" vertex="1" parent="opjhmSzoHcYhFnEXp1DA-616">
          <mxGeometry x="20" y="460" width="110" height="30" as="geometry" />
        </mxCell>
        <mxCell id="opjhmSzoHcYhFnEXp1DA-626" value="Output 9" style="rounded=0;whiteSpace=wrap;html=1;" vertex="1" parent="opjhmSzoHcYhFnEXp1DA-616">
          <mxGeometry x="20" y="490" width="110" height="30" as="geometry" />
        </mxCell>
        <mxCell id="opjhmSzoHcYhFnEXp1DA-627" value="Output 8" style="rounded=0;whiteSpace=wrap;html=1;" vertex="1" parent="opjhmSzoHcYhFnEXp1DA-616">
          <mxGeometry x="20" y="520" width="110" height="30" as="geometry" />
        </mxCell>
        <mxCell id="opjhmSzoHcYhFnEXp1DA-628" value="Output 7" style="rounded=0;whiteSpace=wrap;html=1;" vertex="1" parent="opjhmSzoHcYhFnEXp1DA-616">
          <mxGeometry x="20" y="550" width="110" height="30" as="geometry" />
        </mxCell>
        <mxCell id="opjhmSzoHcYhFnEXp1DA-629" value="Output 16" style="rounded=0;whiteSpace=wrap;html=1;" vertex="1" parent="opjhmSzoHcYhFnEXp1DA-616">
          <mxGeometry x="20" y="280" width="110" height="30" as="geometry" />
        </mxCell>
        <mxCell id="opjhmSzoHcYhFnEXp1DA-630" value="Output 15" style="rounded=0;whiteSpace=wrap;html=1;" vertex="1" parent="opjhmSzoHcYhFnEXp1DA-616">
          <mxGeometry x="20" y="310" width="110" height="30" as="geometry" />
        </mxCell>
        <mxCell id="opjhmSzoHcYhFnEXp1DA-631" value="Output 14" style="rounded=0;whiteSpace=wrap;html=1;" vertex="1" parent="opjhmSzoHcYhFnEXp1DA-616">
          <mxGeometry x="20" y="340" width="110" height="30" as="geometry" />
        </mxCell>
        <mxCell id="opjhmSzoHcYhFnEXp1DA-632" value="&lt;div&gt;Output 13&lt;/div&gt;" style="rounded=0;whiteSpace=wrap;html=1;" vertex="1" parent="opjhmSzoHcYhFnEXp1DA-616">
          <mxGeometry x="20" y="370" width="110" height="30" as="geometry" />
        </mxCell>
        <mxCell id="opjhmSzoHcYhFnEXp1DA-633" value="Output 17" style="rounded=0;whiteSpace=wrap;html=1;" vertex="1" parent="opjhmSzoHcYhFnEXp1DA-616">
          <mxGeometry x="20" y="250" width="110" height="30" as="geometry" />
        </mxCell>
        <mxCell id="opjhmSzoHcYhFnEXp1DA-634" value="Output 18" style="rounded=0;whiteSpace=wrap;html=1;" vertex="1" parent="opjhmSzoHcYhFnEXp1DA-616">
          <mxGeometry x="20" y="220" width="110" height="30" as="geometry" />
        </mxCell>
        <mxCell id="opjhmSzoHcYhFnEXp1DA-635" value="Output 20" style="rounded=0;whiteSpace=wrap;html=1;" vertex="1" parent="opjhmSzoHcYhFnEXp1DA-616">
          <mxGeometry x="20" y="160" width="110" height="30" as="geometry" />
        </mxCell>
        <mxCell id="opjhmSzoHcYhFnEXp1DA-636" value="Output 19" style="rounded=0;whiteSpace=wrap;html=1;" vertex="1" parent="opjhmSzoHcYhFnEXp1DA-616">
          <mxGeometry x="20" y="190" width="110" height="30" as="geometry" />
        </mxCell>
        <mxCell id="opjhmSzoHcYhFnEXp1DA-637" value="Output 22" style="rounded=0;whiteSpace=wrap;html=1;" vertex="1" parent="opjhmSzoHcYhFnEXp1DA-616">
          <mxGeometry x="20" y="100" width="110" height="30" as="geometry" />
        </mxCell>
        <mxCell id="opjhmSzoHcYhFnEXp1DA-638" value="Output 21" style="rounded=0;whiteSpace=wrap;html=1;" vertex="1" parent="opjhmSzoHcYhFnEXp1DA-616">
          <mxGeometry x="20" y="130" width="110" height="30" as="geometry" />
        </mxCell>
        <mxCell id="opjhmSzoHcYhFnEXp1DA-639" value="Output 24" style="rounded=0;whiteSpace=wrap;html=1;" vertex="1" parent="opjhmSzoHcYhFnEXp1DA-616">
          <mxGeometry x="20" y="40" width="110" height="30" as="geometry" />
        </mxCell>
        <mxCell id="opjhmSzoHcYhFnEXp1DA-640" value="Output 23" style="rounded=0;whiteSpace=wrap;html=1;" vertex="1" parent="opjhmSzoHcYhFnEXp1DA-616">
          <mxGeometry x="20" y="70" width="110" height="30" as="geometry" />
        </mxCell>
        <mxCell id="opjhmSzoHcYhFnEXp1DA-641" value="Patch In" style="swimlane;whiteSpace=wrap;html=1;swimlaneFillColor=#CCCCCC;" vertex="1" parent="1">
          <mxGeometry x="247" y="-160" width="150" height="780" as="geometry" />
        </mxCell>
        <mxCell id="opjhmSzoHcYhFnEXp1DA-642" value="Input 6" style="rounded=0;whiteSpace=wrap;html=1;" vertex="1" parent="opjhmSzoHcYhFnEXp1DA-641">
          <mxGeometry x="20" y="580" width="110" height="30" as="geometry" />
        </mxCell>
        <mxCell id="opjhmSzoHcYhFnEXp1DA-643" value="Input 5" style="rounded=0;whiteSpace=wrap;html=1;" vertex="1" parent="opjhmSzoHcYhFnEXp1DA-641">
          <mxGeometry x="20" y="610" width="110" height="30" as="geometry" />
        </mxCell>
        <mxCell id="opjhmSzoHcYhFnEXp1DA-644" value="Input 4" style="rounded=0;whiteSpace=wrap;html=1;" vertex="1" parent="opjhmSzoHcYhFnEXp1DA-641">
          <mxGeometry x="20" y="640" width="110" height="30" as="geometry" />
        </mxCell>
        <mxCell id="opjhmSzoHcYhFnEXp1DA-645" value="Input 3" style="rounded=0;whiteSpace=wrap;html=1;" vertex="1" parent="opjhmSzoHcYhFnEXp1DA-641">
          <mxGeometry x="20" y="670" width="110" height="30" as="geometry" />
        </mxCell>
        <mxCell id="opjhmSzoHcYhFnEXp1DA-646" value="Input 2" style="rounded=0;whiteSpace=wrap;html=1;" vertex="1" parent="opjhmSzoHcYhFnEXp1DA-641">
          <mxGeometry x="20" y="700" width="110" height="30" as="geometry" />
        </mxCell>
        <mxCell id="opjhmSzoHcYhFnEXp1DA-647" value="Input 1" style="rounded=0;whiteSpace=wrap;html=1;" vertex="1" parent="opjhmSzoHcYhFnEXp1DA-641">
          <mxGeometry x="20" y="730" width="110" height="30" as="geometry" />
        </mxCell>
        <mxCell id="opjhmSzoHcYhFnEXp1DA-648" value="Input 12" style="rounded=0;whiteSpace=wrap;html=1;" vertex="1" parent="opjhmSzoHcYhFnEXp1DA-641">
          <mxGeometry x="20" y="400" width="110" height="30" as="geometry" />
        </mxCell>
        <mxCell id="opjhmSzoHcYhFnEXp1DA-649" value="Input 11" style="rounded=0;whiteSpace=wrap;html=1;" vertex="1" parent="opjhmSzoHcYhFnEXp1DA-641">
          <mxGeometry x="20" y="430" width="110" height="30" as="geometry" />
        </mxCell>
        <mxCell id="opjhmSzoHcYhFnEXp1DA-650" value="Input 10" style="rounded=0;whiteSpace=wrap;html=1;" vertex="1" parent="opjhmSzoHcYhFnEXp1DA-641">
          <mxGeometry x="20" y="460" width="110" height="30" as="geometry" />
        </mxCell>
        <mxCell id="opjhmSzoHcYhFnEXp1DA-651" value="Input 9" style="rounded=0;whiteSpace=wrap;html=1;" vertex="1" parent="opjhmSzoHcYhFnEXp1DA-641">
          <mxGeometry x="20" y="490" width="110" height="30" as="geometry" />
        </mxCell>
        <mxCell id="opjhmSzoHcYhFnEXp1DA-652" value="Input 8" style="rounded=0;whiteSpace=wrap;html=1;" vertex="1" parent="opjhmSzoHcYhFnEXp1DA-641">
          <mxGeometry x="20" y="520" width="110" height="30" as="geometry" />
        </mxCell>
        <mxCell id="opjhmSzoHcYhFnEXp1DA-653" value="Input 16" style="rounded=0;whiteSpace=wrap;html=1;" vertex="1" parent="opjhmSzoHcYhFnEXp1DA-641">
          <mxGeometry x="20" y="280" width="110" height="30" as="geometry" />
        </mxCell>
        <mxCell id="opjhmSzoHcYhFnEXp1DA-654" value="Input 15" style="rounded=0;whiteSpace=wrap;html=1;" vertex="1" parent="opjhmSzoHcYhFnEXp1DA-641">
          <mxGeometry x="20" y="310" width="110" height="30" as="geometry" />
        </mxCell>
        <mxCell id="opjhmSzoHcYhFnEXp1DA-655" value="Input 14" style="rounded=0;whiteSpace=wrap;html=1;" vertex="1" parent="opjhmSzoHcYhFnEXp1DA-641">
          <mxGeometry x="20" y="340" width="110" height="30" as="geometry" />
        </mxCell>
        <mxCell id="opjhmSzoHcYhFnEXp1DA-656" value="Input 13" style="rounded=0;whiteSpace=wrap;html=1;" vertex="1" parent="opjhmSzoHcYhFnEXp1DA-641">
          <mxGeometry x="20" y="370" width="110" height="30" as="geometry" />
        </mxCell>
        <mxCell id="opjhmSzoHcYhFnEXp1DA-657" value="Input 7" style="rounded=0;whiteSpace=wrap;html=1;" vertex="1" parent="opjhmSzoHcYhFnEXp1DA-641">
          <mxGeometry x="20" y="550" width="110" height="30" as="geometry" />
        </mxCell>
        <mxCell id="opjhmSzoHcYhFnEXp1DA-658" value="Input 20" style="rounded=0;whiteSpace=wrap;html=1;" vertex="1" parent="opjhmSzoHcYhFnEXp1DA-641">
          <mxGeometry x="20" y="160" width="110" height="30" as="geometry" />
        </mxCell>
        <mxCell id="opjhmSzoHcYhFnEXp1DA-659" value="Input 19" style="rounded=0;whiteSpace=wrap;html=1;" vertex="1" parent="opjhmSzoHcYhFnEXp1DA-641">
          <mxGeometry x="20" y="190" width="110" height="30" as="geometry" />
        </mxCell>
        <mxCell id="opjhmSzoHcYhFnEXp1DA-660" value="Input 18" style="rounded=0;whiteSpace=wrap;html=1;" vertex="1" parent="opjhmSzoHcYhFnEXp1DA-641">
          <mxGeometry x="20" y="220" width="110" height="30" as="geometry" />
        </mxCell>
        <mxCell id="opjhmSzoHcYhFnEXp1DA-661" value="Input 17" style="rounded=0;whiteSpace=wrap;html=1;" vertex="1" parent="opjhmSzoHcYhFnEXp1DA-641">
          <mxGeometry x="20" y="250" width="110" height="30" as="geometry" />
        </mxCell>
        <mxCell id="opjhmSzoHcYhFnEXp1DA-662" value="Input 24" style="rounded=0;whiteSpace=wrap;html=1;" vertex="1" parent="opjhmSzoHcYhFnEXp1DA-641">
          <mxGeometry x="20" y="40" width="110" height="30" as="geometry" />
        </mxCell>
        <mxCell id="opjhmSzoHcYhFnEXp1DA-663" value="Input 23" style="rounded=0;whiteSpace=wrap;html=1;" vertex="1" parent="opjhmSzoHcYhFnEXp1DA-641">
          <mxGeometry x="20" y="70" width="110" height="30" as="geometry" />
        </mxCell>
        <mxCell id="opjhmSzoHcYhFnEXp1DA-664" value="Input 22" style="rounded=0;whiteSpace=wrap;html=1;" vertex="1" parent="opjhmSzoHcYhFnEXp1DA-641">
          <mxGeometry x="20" y="100" width="110" height="30" as="geometry" />
        </mxCell>
        <mxCell id="opjhmSzoHcYhFnEXp1DA-665" value="&lt;div&gt;Input 21&lt;/div&gt;" style="rounded=0;whiteSpace=wrap;html=1;" vertex="1" parent="opjhmSzoHcYhFnEXp1DA-641">
          <mxGeometry x="20" y="130" width="110" height="30" as="geometry" />
        </mxCell>
        <mxCell id="opjhmSzoHcYhFnEXp1DA-666" style="edgeStyle=orthogonalEdgeStyle;rounded=0;orthogonalLoop=1;jettySize=auto;html=1;exitX=1;exitY=0.5;exitDx=0;exitDy=0;entryX=0;entryY=0.5;entryDx=0;entryDy=0;" edge="1" parent="1" source="opjhmSzoHcYhFnEXp1DA-615" target="opjhmSzoHcYhFnEXp1DA-647">
          <mxGeometry relative="1" as="geometry" />
        </mxCell>
        <mxCell id="opjhmSzoHcYhFnEXp1DA-667" style="edgeStyle=orthogonalEdgeStyle;rounded=0;orthogonalLoop=1;jettySize=auto;html=1;exitX=1;exitY=0.5;exitDx=0;exitDy=0;entryX=0;entryY=0.5;entryDx=0;entryDy=0;" edge="1" parent="1" source="opjhmSzoHcYhFnEXp1DA-614" target="opjhmSzoHcYhFnEXp1DA-646">
          <mxGeometry relative="1" as="geometry" />
        </mxCell>
        <mxCell id="opjhmSzoHcYhFnEXp1DA-668" style="edgeStyle=orthogonalEdgeStyle;rounded=0;orthogonalLoop=1;jettySize=auto;html=1;exitX=1;exitY=0.5;exitDx=0;exitDy=0;entryX=0;entryY=0.5;entryDx=0;entryDy=0;" edge="1" parent="1" source="opjhmSzoHcYhFnEXp1DA-613" target="opjhmSzoHcYhFnEXp1DA-645">
          <mxGeometry relative="1" as="geometry" />
        </mxCell>
        <mxCell id="opjhmSzoHcYhFnEXp1DA-669" style="edgeStyle=orthogonalEdgeStyle;rounded=0;orthogonalLoop=1;jettySize=auto;html=1;exitX=1;exitY=0.5;exitDx=0;exitDy=0;entryX=0;entryY=0.5;entryDx=0;entryDy=0;" edge="1" parent="1" source="opjhmSzoHcYhFnEXp1DA-612" target="opjhmSzoHcYhFnEXp1DA-644">
          <mxGeometry relative="1" as="geometry" />
        </mxCell>
        <mxCell id="opjhmSzoHcYhFnEXp1DA-670" style="edgeStyle=orthogonalEdgeStyle;rounded=0;orthogonalLoop=1;jettySize=auto;html=1;exitX=1;exitY=0.5;exitDx=0;exitDy=0;entryX=0;entryY=0.5;entryDx=0;entryDy=0;" edge="1" parent="1" source="opjhmSzoHcYhFnEXp1DA-611" target="opjhmSzoHcYhFnEXp1DA-643">
          <mxGeometry relative="1" as="geometry" />
        </mxCell>
        <mxCell id="opjhmSzoHcYhFnEXp1DA-671" style="edgeStyle=orthogonalEdgeStyle;rounded=0;orthogonalLoop=1;jettySize=auto;html=1;exitX=1;exitY=0.5;exitDx=0;exitDy=0;entryX=0;entryY=0.5;entryDx=0;entryDy=0;" edge="1" parent="1" source="opjhmSzoHcYhFnEXp1DA-610" target="opjhmSzoHcYhFnEXp1DA-642">
          <mxGeometry relative="1" as="geometry" />
        </mxCell>
        <mxCell id="opjhmSzoHcYhFnEXp1DA-672" style="edgeStyle=orthogonalEdgeStyle;rounded=0;orthogonalLoop=1;jettySize=auto;html=1;exitX=1;exitY=0.5;exitDx=0;exitDy=0;" edge="1" parent="1" source="opjhmSzoHcYhFnEXp1DA-646" target="opjhmSzoHcYhFnEXp1DA-621">
          <mxGeometry relative="1" as="geometry" />
        </mxCell>
        <mxCell id="opjhmSzoHcYhFnEXp1DA-673" style="edgeStyle=orthogonalEdgeStyle;rounded=0;orthogonalLoop=1;jettySize=auto;html=1;exitX=1;exitY=0.5;exitDx=0;exitDy=0;" edge="1" parent="1" source="opjhmSzoHcYhFnEXp1DA-647" target="opjhmSzoHcYhFnEXp1DA-622">
          <mxGeometry relative="1" as="geometry" />
        </mxCell>
        <mxCell id="opjhmSzoHcYhFnEXp1DA-674" style="edgeStyle=orthogonalEdgeStyle;rounded=0;orthogonalLoop=1;jettySize=auto;html=1;exitX=1;exitY=0.5;exitDx=0;exitDy=0;strokeWidth=1;" edge="1" parent="1" source="opjhmSzoHcYhFnEXp1DA-626">
          <mxGeometry relative="1" as="geometry">
            <mxPoint x="157" y="620" as="targetPoint" />
            <Array as="points">
              <mxPoint x="637" y="345" />
              <mxPoint x="637" y="670" />
              <mxPoint x="157" y="670" />
            </Array>
          </mxGeometry>
        </mxCell>
        <mxCell id="opjhmSzoHcYhFnEXp1DA-675" style="edgeStyle=orthogonalEdgeStyle;rounded=0;orthogonalLoop=1;jettySize=auto;html=1;exitX=1;exitY=0.5;exitDx=0;exitDy=0;entryX=0.5;entryY=1;entryDx=0;entryDy=0;strokeWidth=1;" edge="1" parent="1" source="opjhmSzoHcYhFnEXp1DA-625" target="opjhmSzoHcYhFnEXp1DA-609">
          <mxGeometry relative="1" as="geometry">
            <mxPoint x="27" y="530" as="targetPoint" />
            <Array as="points">
              <mxPoint x="657" y="315" />
              <mxPoint x="657" y="690" />
              <mxPoint x="142" y="690" />
            </Array>
          </mxGeometry>
        </mxCell>
        <mxCell id="opjhmSzoHcYhFnEXp1DA-676" value="Analogue Mixer" style="swimlane;horizontal=0;whiteSpace=wrap;html=1;swimlaneFillColor=#CCCCCC;" vertex="1" parent="1">
          <mxGeometry x="67" y="100" width="150" height="130" as="geometry" />
        </mxCell>
        <mxCell id="opjhmSzoHcYhFnEXp1DA-677" value="Output R" style="rounded=0;whiteSpace=wrap;html=1;" vertex="1" parent="opjhmSzoHcYhFnEXp1DA-676">
          <mxGeometry x="30" y="20" width="110" height="30" as="geometry" />
        </mxCell>
        <mxCell id="opjhmSzoHcYhFnEXp1DA-678" value="Output L" style="rounded=0;whiteSpace=wrap;html=1;" vertex="1" parent="opjhmSzoHcYhFnEXp1DA-676">
          <mxGeometry x="30" y="50" width="110" height="30" as="geometry" />
        </mxCell>
        <mxCell id="opjhmSzoHcYhFnEXp1DA-685" style="edgeStyle=orthogonalEdgeStyle;rounded=0;orthogonalLoop=1;jettySize=auto;html=1;exitX=1;exitY=0.5;exitDx=0;exitDy=0;entryX=0;entryY=0.5;entryDx=0;entryDy=0;" edge="1" parent="1" source="opjhmSzoHcYhFnEXp1DA-677" target="opjhmSzoHcYhFnEXp1DA-653">
          <mxGeometry relative="1" as="geometry" />
        </mxCell>
        <mxCell id="opjhmSzoHcYhFnEXp1DA-686" style="edgeStyle=orthogonalEdgeStyle;rounded=0;orthogonalLoop=1;jettySize=auto;html=1;exitX=1;exitY=0.5;exitDx=0;exitDy=0;entryX=0;entryY=0.5;entryDx=0;entryDy=0;" edge="1" parent="1" source="opjhmSzoHcYhFnEXp1DA-678" target="opjhmSzoHcYhFnEXp1DA-654">
          <mxGeometry relative="1" as="geometry" />
        </mxCell>
        <mxCell id="opjhmSzoHcYhFnEXp1DA-687" value="Speakers" style="swimlane;whiteSpace=wrap;html=1;swimlaneFillColor=#CCCCCC;" vertex="1" parent="1">
          <mxGeometry x="677" y="320" width="150" height="300" as="geometry" />
        </mxCell>
        <mxCell id="opjhmSzoHcYhFnEXp1DA-688" value="Sub R" style="rounded=0;whiteSpace=wrap;html=1;" vertex="1" parent="opjhmSzoHcYhFnEXp1DA-687">
          <mxGeometry x="20" y="100" width="110" height="30" as="geometry" />
        </mxCell>
        <mxCell id="opjhmSzoHcYhFnEXp1DA-689" value="Sub L" style="rounded=0;whiteSpace=wrap;html=1;" vertex="1" parent="opjhmSzoHcYhFnEXp1DA-687">
          <mxGeometry x="20" y="130" width="110" height="30" as="geometry" />
        </mxCell>
        <mxCell id="opjhmSzoHcYhFnEXp1DA-690" value="Near R" style="rounded=0;whiteSpace=wrap;html=1;" vertex="1" parent="opjhmSzoHcYhFnEXp1DA-687">
          <mxGeometry x="20" y="160" width="110" height="30" as="geometry" />
        </mxCell>
        <mxCell id="opjhmSzoHcYhFnEXp1DA-691" value="Near L" style="rounded=0;whiteSpace=wrap;html=1;" vertex="1" parent="opjhmSzoHcYhFnEXp1DA-687">
          <mxGeometry x="20" y="190" width="110" height="30" as="geometry" />
        </mxCell>
        <mxCell id="opjhmSzoHcYhFnEXp1DA-692" value="Far R" style="rounded=0;whiteSpace=wrap;html=1;" vertex="1" parent="opjhmSzoHcYhFnEXp1DA-687">
          <mxGeometry x="20" y="220" width="110" height="30" as="geometry" />
        </mxCell>
        <mxCell id="opjhmSzoHcYhFnEXp1DA-693" value="Far L" style="rounded=0;whiteSpace=wrap;html=1;" vertex="1" parent="opjhmSzoHcYhFnEXp1DA-687">
          <mxGeometry x="20" y="250" width="110" height="30" as="geometry" />
        </mxCell>
        <mxCell id="opjhmSzoHcYhFnEXp1DA-694" value="Tech Box R" style="rounded=0;whiteSpace=wrap;html=1;" vertex="1" parent="opjhmSzoHcYhFnEXp1DA-687">
          <mxGeometry x="20" y="40" width="110" height="30" as="geometry" />
        </mxCell>
        <mxCell id="opjhmSzoHcYhFnEXp1DA-695" value="Tech Box L" style="rounded=0;whiteSpace=wrap;html=1;" vertex="1" parent="opjhmSzoHcYhFnEXp1DA-687">
          <mxGeometry x="20" y="70" width="110" height="30" as="geometry" />
        </mxCell>
        <mxCell id="opjhmSzoHcYhFnEXp1DA-696" style="edgeStyle=orthogonalEdgeStyle;rounded=0;orthogonalLoop=1;jettySize=auto;html=1;exitX=1;exitY=0.5;exitDx=0;exitDy=0;entryX=0;entryY=0.5;entryDx=0;entryDy=0;strokeWidth=1;" edge="1" parent="1" source="opjhmSzoHcYhFnEXp1DA-617" target="opjhmSzoHcYhFnEXp1DA-688">
          <mxGeometry relative="1" as="geometry" />
        </mxCell>
        <mxCell id="opjhmSzoHcYhFnEXp1DA-697" style="edgeStyle=orthogonalEdgeStyle;rounded=0;orthogonalLoop=1;jettySize=auto;html=1;exitX=1;exitY=0.5;exitDx=0;exitDy=0;entryX=0;entryY=0.5;entryDx=0;entryDy=0;strokeWidth=1;" edge="1" parent="1" source="opjhmSzoHcYhFnEXp1DA-618" target="opjhmSzoHcYhFnEXp1DA-689">
          <mxGeometry relative="1" as="geometry" />
        </mxCell>
        <mxCell id="opjhmSzoHcYhFnEXp1DA-698" style="edgeStyle=orthogonalEdgeStyle;rounded=0;orthogonalLoop=1;jettySize=auto;html=1;exitX=1;exitY=0.5;exitDx=0;exitDy=0;entryX=0;entryY=0.5;entryDx=0;entryDy=0;strokeWidth=1;" edge="1" parent="1" source="opjhmSzoHcYhFnEXp1DA-619" target="opjhmSzoHcYhFnEXp1DA-690">
          <mxGeometry relative="1" as="geometry" />
        </mxCell>
        <mxCell id="opjhmSzoHcYhFnEXp1DA-699" style="edgeStyle=orthogonalEdgeStyle;rounded=0;orthogonalLoop=1;jettySize=auto;html=1;exitX=1;exitY=0.5;exitDx=0;exitDy=0;strokeWidth=1;" edge="1" parent="1" source="opjhmSzoHcYhFnEXp1DA-620" target="opjhmSzoHcYhFnEXp1DA-691">
          <mxGeometry relative="1" as="geometry" />
        </mxCell>
        <mxCell id="opjhmSzoHcYhFnEXp1DA-700" style="edgeStyle=orthogonalEdgeStyle;rounded=0;orthogonalLoop=1;jettySize=auto;html=1;exitX=1;exitY=0.5;exitDx=0;exitDy=0;strokeWidth=1;" edge="1" parent="1" source="opjhmSzoHcYhFnEXp1DA-621" target="opjhmSzoHcYhFnEXp1DA-692">
          <mxGeometry relative="1" as="geometry" />
        </mxCell>
        <mxCell id="opjhmSzoHcYhFnEXp1DA-701" style="edgeStyle=orthogonalEdgeStyle;rounded=0;orthogonalLoop=1;jettySize=auto;html=1;exitX=1;exitY=0.5;exitDx=0;exitDy=0;strokeWidth=1;" edge="1" parent="1" source="opjhmSzoHcYhFnEXp1DA-622" target="opjhmSzoHcYhFnEXp1DA-693">
          <mxGeometry relative="1" as="geometry" />
        </mxCell>
        <mxCell id="opjhmSzoHcYhFnEXp1DA-702" value="Motu 828Mkii" style="swimlane;horizontal=0;whiteSpace=wrap;html=1;swimlaneFillColor=#CCCCCC;" vertex="1" parent="1">
          <mxGeometry x="67" y="-120" width="150" height="220" as="geometry" />
        </mxCell>
        <mxCell id="opjhmSzoHcYhFnEXp1DA-703" value="Output 16" style="rounded=0;whiteSpace=wrap;html=1;" vertex="1" parent="opjhmSzoHcYhFnEXp1DA-702">
          <mxGeometry x="30" y="20" width="110" height="30" as="geometry" />
        </mxCell>
        <mxCell id="opjhmSzoHcYhFnEXp1DA-704" value="Output 15" style="rounded=0;whiteSpace=wrap;html=1;" vertex="1" parent="opjhmSzoHcYhFnEXp1DA-702">
          <mxGeometry x="30" y="50" width="110" height="30" as="geometry" />
        </mxCell>
        <mxCell id="opjhmSzoHcYhFnEXp1DA-705" value="Output 14" style="rounded=0;whiteSpace=wrap;html=1;" vertex="1" parent="opjhmSzoHcYhFnEXp1DA-702">
          <mxGeometry x="30" y="80" width="110" height="30" as="geometry" />
        </mxCell>
        <mxCell id="opjhmSzoHcYhFnEXp1DA-706" value="Output 13" style="rounded=0;whiteSpace=wrap;html=1;" vertex="1" parent="opjhmSzoHcYhFnEXp1DA-702">
          <mxGeometry x="30" y="110" width="110" height="30" as="geometry" />
        </mxCell>
        <mxCell id="opjhmSzoHcYhFnEXp1DA-707" value="Output 12" style="rounded=0;whiteSpace=wrap;html=1;" vertex="1" parent="opjhmSzoHcYhFnEXp1DA-702">
          <mxGeometry x="30" y="140" width="110" height="30" as="geometry" />
        </mxCell>
        <mxCell id="opjhmSzoHcYhFnEXp1DA-708" value="Output 11" style="rounded=0;whiteSpace=wrap;html=1;" vertex="1" parent="opjhmSzoHcYhFnEXp1DA-702">
          <mxGeometry x="30" y="170" width="110" height="30" as="geometry" />
        </mxCell>
        <mxCell id="opjhmSzoHcYhFnEXp1DA-709" style="edgeStyle=orthogonalEdgeStyle;rounded=0;orthogonalLoop=1;jettySize=auto;html=1;exitX=1;exitY=0.5;exitDx=0;exitDy=0;entryX=0;entryY=0.5;entryDx=0;entryDy=0;" edge="1" parent="1" source="opjhmSzoHcYhFnEXp1DA-708" target="opjhmSzoHcYhFnEXp1DA-661">
          <mxGeometry relative="1" as="geometry">
            <Array as="points">
              <mxPoint x="237" y="65" />
              <mxPoint x="237" y="105" />
            </Array>
          </mxGeometry>
        </mxCell>
        <mxCell id="opjhmSzoHcYhFnEXp1DA-710" style="edgeStyle=orthogonalEdgeStyle;rounded=0;orthogonalLoop=1;jettySize=auto;html=1;exitX=1;exitY=0.5;exitDx=0;exitDy=0;entryX=0;entryY=0.5;entryDx=0;entryDy=0;" edge="1" parent="1" source="opjhmSzoHcYhFnEXp1DA-707" target="opjhmSzoHcYhFnEXp1DA-660">
          <mxGeometry relative="1" as="geometry">
            <Array as="points">
              <mxPoint x="227" y="35" />
              <mxPoint x="227" y="75" />
            </Array>
          </mxGeometry>
        </mxCell>
        <mxCell id="opjhmSzoHcYhFnEXp1DA-711" style="edgeStyle=orthogonalEdgeStyle;rounded=0;orthogonalLoop=1;jettySize=auto;html=1;exitX=1;exitY=0.5;exitDx=0;exitDy=0;entryX=0;entryY=0.5;entryDx=0;entryDy=0;" edge="1" parent="1" source="opjhmSzoHcYhFnEXp1DA-706" target="opjhmSzoHcYhFnEXp1DA-659">
          <mxGeometry relative="1" as="geometry">
            <Array as="points">
              <mxPoint x="237" y="5" />
              <mxPoint x="237" y="45" />
            </Array>
          </mxGeometry>
        </mxCell>
        <mxCell id="opjhmSzoHcYhFnEXp1DA-712" style="edgeStyle=orthogonalEdgeStyle;rounded=0;orthogonalLoop=1;jettySize=auto;html=1;exitX=1;exitY=0.5;exitDx=0;exitDy=0;entryX=0;entryY=0.5;entryDx=0;entryDy=0;" edge="1" parent="1" source="opjhmSzoHcYhFnEXp1DA-705" target="opjhmSzoHcYhFnEXp1DA-658">
          <mxGeometry relative="1" as="geometry">
            <Array as="points">
              <mxPoint x="227" y="-25" />
              <mxPoint x="227" y="15" />
            </Array>
          </mxGeometry>
        </mxCell>
        <mxCell id="opjhmSzoHcYhFnEXp1DA-713" style="edgeStyle=orthogonalEdgeStyle;rounded=0;orthogonalLoop=1;jettySize=auto;html=1;exitX=1;exitY=0.5;exitDx=0;exitDy=0;entryX=0;entryY=0.5;entryDx=0;entryDy=0;" edge="1" parent="1" source="opjhmSzoHcYhFnEXp1DA-704" target="opjhmSzoHcYhFnEXp1DA-665">
          <mxGeometry relative="1" as="geometry" />
        </mxCell>
        <mxCell id="opjhmSzoHcYhFnEXp1DA-714" style="edgeStyle=orthogonalEdgeStyle;rounded=0;orthogonalLoop=1;jettySize=auto;html=1;exitX=1;exitY=0.5;exitDx=0;exitDy=0;entryX=0;entryY=0.5;entryDx=0;entryDy=0;" edge="1" parent="1" source="opjhmSzoHcYhFnEXp1DA-703" target="opjhmSzoHcYhFnEXp1DA-664">
          <mxGeometry relative="1" as="geometry">
            <Array as="points">
              <mxPoint x="227" y="-85" />
              <mxPoint x="227" y="-45" />
            </Array>
          </mxGeometry>
        </mxCell>
        <mxCell id="opjhmSzoHcYhFnEXp1DA-715" style="edgeStyle=orthogonalEdgeStyle;rounded=0;orthogonalLoop=1;jettySize=auto;html=1;exitX=1;exitY=0.5;exitDx=0;exitDy=0;" edge="1" parent="1" source="opjhmSzoHcYhFnEXp1DA-627" target="opjhmSzoHcYhFnEXp1DA-694">
          <mxGeometry relative="1" as="geometry" />
        </mxCell>
        <mxCell id="opjhmSzoHcYhFnEXp1DA-716" style="edgeStyle=orthogonalEdgeStyle;rounded=0;orthogonalLoop=1;jettySize=auto;html=1;exitX=1;exitY=0.5;exitDx=0;exitDy=0;" edge="1" parent="1" source="opjhmSzoHcYhFnEXp1DA-628" target="opjhmSzoHcYhFnEXp1DA-695">
          <mxGeometry relative="1" as="geometry" />
        </mxCell>
        <mxCell id="opjhmSzoHcYhFnEXp1DA-723" style="edgeStyle=orthogonalEdgeStyle;rounded=0;orthogonalLoop=1;jettySize=auto;html=1;exitX=1;exitY=0.5;exitDx=0;exitDy=0;entryX=0;entryY=0.5;entryDx=0;entryDy=0;" edge="1" parent="1" source="opjhmSzoHcYhFnEXp1DA-645" target="opjhmSzoHcYhFnEXp1DA-620">
          <mxGeometry relative="1" as="geometry" />
        </mxCell>
        <mxCell id="opjhmSzoHcYhFnEXp1DA-724" style="edgeStyle=orthogonalEdgeStyle;rounded=0;orthogonalLoop=1;jettySize=auto;html=1;exitX=1;exitY=0.5;exitDx=0;exitDy=0;" edge="1" parent="1" source="opjhmSzoHcYhFnEXp1DA-644" target="opjhmSzoHcYhFnEXp1DA-619">
          <mxGeometry relative="1" as="geometry" />
        </mxCell>
        <mxCell id="opjhmSzoHcYhFnEXp1DA-725" style="edgeStyle=orthogonalEdgeStyle;rounded=0;orthogonalLoop=1;jettySize=auto;html=1;exitX=1;exitY=0.5;exitDx=0;exitDy=0;entryX=0;entryY=0.5;entryDx=0;entryDy=0;" edge="1" parent="1" source="opjhmSzoHcYhFnEXp1DA-643" target="opjhmSzoHcYhFnEXp1DA-618">
          <mxGeometry relative="1" as="geometry" />
        </mxCell>
        <mxCell id="opjhmSzoHcYhFnEXp1DA-726" style="edgeStyle=orthogonalEdgeStyle;rounded=0;orthogonalLoop=1;jettySize=auto;html=1;exitX=1;exitY=0.5;exitDx=0;exitDy=0;" edge="1" parent="1" source="opjhmSzoHcYhFnEXp1DA-642" target="opjhmSzoHcYhFnEXp1DA-617">
          <mxGeometry relative="1" as="geometry" />
        </mxCell>
        <mxCell id="opjhmSzoHcYhFnEXp1DA-729" style="edgeStyle=orthogonalEdgeStyle;rounded=0;orthogonalLoop=1;jettySize=auto;html=1;exitX=1;exitY=0.5;exitDx=0;exitDy=0;entryX=0;entryY=0.5;entryDx=0;entryDy=0;fillColor=#dae8fc;strokeColor=#6c8ebf;strokeWidth=2;" edge="1" parent="1" source="opjhmSzoHcYhFnEXp1DA-653" target="opjhmSzoHcYhFnEXp1DA-625">
          <mxGeometry relative="1" as="geometry">
            <Array as="points">
              <mxPoint x="450" y="135" />
              <mxPoint x="450" y="315" />
            </Array>
          </mxGeometry>
        </mxCell>
        <mxCell id="opjhmSzoHcYhFnEXp1DA-730" style="edgeStyle=orthogonalEdgeStyle;rounded=0;orthogonalLoop=1;jettySize=auto;html=1;exitX=1;exitY=0.5;exitDx=0;exitDy=0;entryX=0;entryY=0.5;entryDx=0;entryDy=0;fillColor=#dae8fc;strokeColor=#6c8ebf;strokeWidth=2;" edge="1" parent="1" source="opjhmSzoHcYhFnEXp1DA-654" target="opjhmSzoHcYhFnEXp1DA-626">
          <mxGeometry relative="1" as="geometry">
            <Array as="points">
              <mxPoint x="440" y="165" />
              <mxPoint x="440" y="345" />
            </Array>
          </mxGeometry>
        </mxCell>
        <mxCell id="opjhmSzoHcYhFnEXp1DA-731" value="Mini mixer" style="swimlane;horizontal=0;whiteSpace=wrap;html=1;swimlaneFillColor=#CCCCCC;" vertex="1" parent="1">
          <mxGeometry x="67" y="250" width="150" height="130" as="geometry" />
        </mxCell>
        <mxCell id="opjhmSzoHcYhFnEXp1DA-732" value="Output R" style="rounded=0;whiteSpace=wrap;html=1;" vertex="1" parent="opjhmSzoHcYhFnEXp1DA-731">
          <mxGeometry x="30" y="20" width="110" height="30" as="geometry" />
        </mxCell>
        <mxCell id="opjhmSzoHcYhFnEXp1DA-733" value="Output L" style="rounded=0;whiteSpace=wrap;html=1;" vertex="1" parent="opjhmSzoHcYhFnEXp1DA-731">
          <mxGeometry x="30" y="50" width="110" height="30" as="geometry" />
        </mxCell>
        <mxCell id="opjhmSzoHcYhFnEXp1DA-734" style="edgeStyle=orthogonalEdgeStyle;rounded=0;orthogonalLoop=1;jettySize=auto;html=1;exitX=1;exitY=0.5;exitDx=0;exitDy=0;entryX=0;entryY=0.5;entryDx=0;entryDy=0;" edge="1" parent="1" source="opjhmSzoHcYhFnEXp1DA-732" target="opjhmSzoHcYhFnEXp1DA-652">
          <mxGeometry relative="1" as="geometry" />
        </mxCell>
        <mxCell id="opjhmSzoHcYhFnEXp1DA-735" style="edgeStyle=orthogonalEdgeStyle;rounded=0;orthogonalLoop=1;jettySize=auto;html=1;exitX=1;exitY=0.5;exitDx=0;exitDy=0;entryX=0;entryY=0.5;entryDx=0;entryDy=0;" edge="1" parent="1" source="opjhmSzoHcYhFnEXp1DA-733" target="opjhmSzoHcYhFnEXp1DA-657">
          <mxGeometry relative="1" as="geometry">
            <Array as="points">
              <mxPoint x="230" y="315" />
              <mxPoint x="230" y="405" />
            </Array>
          </mxGeometry>
        </mxCell>
        <mxCell id="opjhmSzoHcYhFnEXp1DA-736" style="edgeStyle=orthogonalEdgeStyle;rounded=0;orthogonalLoop=1;jettySize=auto;html=1;exitX=1;exitY=0.5;exitDx=0;exitDy=0;entryX=0;entryY=0.5;entryDx=0;entryDy=0;" edge="1" parent="1" source="opjhmSzoHcYhFnEXp1DA-652" target="opjhmSzoHcYhFnEXp1DA-627">
          <mxGeometry relative="1" as="geometry" />
        </mxCell>
        <mxCell id="opjhmSzoHcYhFnEXp1DA-737" style="edgeStyle=orthogonalEdgeStyle;rounded=0;orthogonalLoop=1;jettySize=auto;html=1;exitX=1;exitY=0.5;exitDx=0;exitDy=0;" edge="1" parent="1" source="opjhmSzoHcYhFnEXp1DA-657" target="opjhmSzoHcYhFnEXp1DA-628">
          <mxGeometry relative="1" as="geometry" />
        </mxCell>
      </root>
    </mxGraphModel>
  </diagram>
</mxfile>
